<?xml version="1.0" encoding="UTF-8" standalone="no"?>
<!DOCTYPE svg PUBLIC "-//W3C//DTD SVG 1.1//EN"
 "http://www.w3.org/Graphics/SVG/1.1/DTD/svg11.dtd">
<!-- Generated by graphviz version 9.0.0 (20230911.1827)
 -->
<!-- Title: cluster0factor.py Pages: 1 -->
<svg width="3722pt" height="1096pt"
 viewBox="0.00 0.00 3721.67 1096.00" xmlns="http://www.w3.org/2000/svg" xmlns:xlink="http://www.w3.org/1999/xlink">
<g id="graph0" class="graph" transform="scale(1 1) rotate(0) translate(4 1092)">
<title>cluster0factor.py</title>
<polygon fill="white" stroke="none" points="-4,4 -4,-1092 3717.67,-1092 3717.67,4 -4,4"/>
<text text-anchor="middle" x="1856.83" y="-7.95" font-family="DejaVu Sans Mono" font-size="14.00">factor.py</text>
<g id="clust1" class="cluster">
<title>cluster_37</title>
<polygon fill="purple" stroke="purple" points="93.67,-102.25 93.67,-154.25 321.67,-154.25 321.67,-102.25 93.67,-102.25"/>
</g>
<g id="clust2" class="cluster">
<title>cluster0factor</title>
<polygon fill="none" stroke="black" points="467.67,-356.75 467.67,-1080 1415.67,-1080 1415.67,-356.75 467.67,-356.75"/>
<text text-anchor="middle" x="941.67" y="-1062.7" font-family="DejaVu Sans Mono" font-size="14.00">factor</text>
</g>
<g id="clust3" class="cluster">
<title>cluster0main</title>
<polygon fill="none" stroke="black" points="1423.67,-33.25 1423.67,-821.12 3293.67,-821.12 3293.67,-33.25 1423.67,-33.25"/>
<text text-anchor="middle" x="2358.67" y="-803.83" font-family="DejaVu Sans Mono" font-size="14.00">main</text>
</g>
<g id="clust4" class="cluster">
<title>cluster_8</title>
<polygon fill="purple" stroke="purple" points="3215.67,-356.75 3215.67,-408.75 3285.67,-408.75 3285.67,-356.75 3215.67,-356.75"/>
</g>
<g id="clust5" class="cluster">
<title>cluster_15</title>
<polygon fill="purple" stroke="purple" points="1621.67,-102.25 1621.67,-154.25 1695.67,-154.25 1695.67,-102.25 1621.67,-102.25"/>
</g>
<g id="clust6" class="cluster">
<title>cluster_13</title>
<polygon fill="purple" stroke="purple" points="2233.67,-41.25 2233.67,-154.25 2390.67,-154.25 2390.67,-41.25 2233.67,-41.25"/>
</g>
<g id="clust7" class="cluster">
<title>cluster_23</title>
<polygon fill="purple" stroke="purple" points="2133.67,-356.75 2133.67,-408.75 2207.67,-408.75 2207.67,-356.75 2133.67,-356.75"/>
</g>
<g id="clust8" class="cluster">
<title>cluster_25</title>
<polygon fill="purple" stroke="purple" points="1610.67,-356.75 1610.67,-408.75 1684.67,-408.75 1684.67,-356.75 1610.67,-356.75"/>
</g>
<g id="clust9" class="cluster">
<title>cluster_21</title>
<polygon fill="purple" stroke="purple" points="2737.67,-102.25 2737.67,-256 3285.67,-256 3285.67,-102.25 2737.67,-102.25"/>
</g>
<g id="clust10" class="cluster">
<title>cluster_KEY</title>
<polygon fill="none" stroke="black" points="3301.67,-204 3301.67,-821.12 3705.67,-821.12 3705.67,-204 3301.67,-204"/>
<text text-anchor="middle" x="3503.67" y="-803.83" font-family="DejaVu Sans Mono" font-size="14.00">KEY</text>
</g>
<!-- 1 -->
<g id="node1" class="node">
<title>1</title>
<polygon fill="#fffb81" stroke="black" points="385.17,-799.75 72.17,-799.75 72.17,-740 385.17,-740 385.17,-799.75"/>
<text text-anchor="start" x="80.17" y="-782.45" font-family="DejaVu Sans Mono" font-size="14.00">import sys</text>
<text text-anchor="start" x="80.17" y="-765.2" font-family="DejaVu Sans Mono" font-size="14.00">def factor(num: int) &#45;&gt;list[int]:...</text>
<text text-anchor="middle" x="228.67" y="-747.95" font-family="DejaVu Sans Mono" font-size="14.00">def main() &#45;&gt;None:...</text>
</g>
<!-- 36 -->
<g id="node2" class="node">
<title>36</title>
<polygon fill="#ff6752" stroke="black" points="228.67,-400.75 0,-382.75 228.67,-364.75 457.33,-382.75 228.67,-400.75"/>
<text text-anchor="middle" x="228.67" y="-378.07" font-family="DejaVu Sans Mono" font-size="14.00">if __name__ == &#39;__main__&#39;:</text>
</g>
<!-- 1&#45;&gt;36 -->
<g id="edge4" class="edge">
<title>1&#45;&gt;36</title>
<path fill="none" stroke="black" d="M228.67,-739.61C228.67,-667.76 228.67,-483.35 228.67,-412.28"/>
<polygon fill="black" stroke="black" points="232.17,-412.64 228.67,-402.64 225.17,-412.64 232.17,-412.64"/>
</g>
<!-- 37 -->
<g id="node3" class="node">
<title>37</title>
<polygon fill="#fffb81" stroke="black" points="306.79,-259.88 150.54,-259.88 150.54,-200.12 306.79,-200.12 306.79,-259.88"/>
<text text-anchor="start" x="158.54" y="-242.57" font-family="DejaVu Sans Mono" font-size="14.00">import doctest</text>
<text text-anchor="start" x="158.54" y="-225.32" font-family="DejaVu Sans Mono" font-size="14.00">doctest.testmod()</text>
<text text-anchor="middle" x="228.67" y="-208.07" font-family="DejaVu Sans Mono" font-size="14.00">main()</text>
</g>
<!-- 36&#45;&gt;37 -->
<g id="edge3" class="edge">
<title>36&#45;&gt;37</title>
<path fill="none" stroke="green" d="M228.67,-364.46C228.67,-341.9 228.67,-301.72 228.67,-271.32"/>
<polygon fill="green" stroke="green" points="232.17,-271.72 228.67,-261.72 225.17,-271.72 232.17,-271.72"/>
<text text-anchor="middle" x="319.42" y="-284.45" font-family="DejaVu Sans Mono" font-size="14.00">__name__ == &#39;__main__&#39;</text>
</g>
<!-- 39 -->
<g id="node4" class="node">
<title>39</title>
<polygon fill="#e552ff" stroke="#e552ff" points="241.54,-146.25 113.79,-146.25 113.79,-150.25 101.79,-150.25 101.79,-110.25 241.54,-110.25 241.54,-146.25"/>
<polyline fill="none" stroke="#e552ff" points="101.79,-146.25 113.79,-146.25"/>
<text text-anchor="middle" x="171.67" y="-123.58" font-family="DejaVu Sans Mono" font-size="14.00">doctest.testmod</text>
</g>
<!-- 37&#45;&gt;39 -->
<g id="edge1" class="edge">
<title>37&#45;&gt;39</title>
<path fill="none" stroke="black" stroke-dasharray="5,2" d="M212.03,-199.88C204.17,-186.13 194.85,-169.82 187.15,-156.34"/>
<polygon fill="black" stroke="black" points="190.38,-154.94 182.37,-147.99 184.3,-158.41 190.38,-154.94"/>
<text text-anchor="middle" x="220.29" y="-166.2" font-family="DejaVu Sans Mono" font-size="14.00">calls</text>
</g>
<!-- 40 -->
<g id="node5" class="node">
<title>40</title>
<polygon fill="#e552ff" stroke="#e552ff" points="313.67,-146.25 271.67,-146.25 271.67,-150.25 259.67,-150.25 259.67,-110.25 313.67,-110.25 313.67,-146.25"/>
<polyline fill="none" stroke="#e552ff" points="259.67,-146.25 271.67,-146.25"/>
<text text-anchor="middle" x="286.67" y="-123.58" font-family="DejaVu Sans Mono" font-size="14.00">main</text>
</g>
<!-- 37&#45;&gt;40 -->
<g id="edge2" class="edge">
<title>37&#45;&gt;40</title>
<path fill="none" stroke="black" stroke-dasharray="5,2" d="M245.6,-199.88C253.59,-186.13 263.07,-169.82 270.91,-156.34"/>
<polygon fill="black" stroke="black" points="273.77,-158.39 275.77,-147.99 267.72,-154.87 273.77,-158.39"/>
<text text-anchor="middle" x="286.29" y="-166.2" font-family="DejaVu Sans Mono" font-size="14.00">calls</text>
</g>
<!-- 3 -->
<g id="node6" class="node">
<title>3</title>
<polygon fill="#fffb81" stroke="black" points="1329.17,-1046.75 554.17,-1046.75 554.17,-493 1329.17,-493 1329.17,-1046.75"/>
<text text-anchor="start" x="562.17" y="-1029.45" font-family="DejaVu Sans Mono" font-size="14.00">&quot;&quot;&quot;</text>
<text text-anchor="start" x="562.17" y="-1012.2" font-family="DejaVu Sans Mono" font-size="14.00"> &#160;&#160;&#160;Purpose: &#160;&#160;&#160;&#160;&#160;&#160;&#160;Factors positive integers</text>
<text text-anchor="start" x="562.17" y="-994.95" font-family="DejaVu Sans Mono" font-size="14.00"> &#160;&#160;&#160;Parameters: &#160;&#160;&#160;&#160;A decimal number, as an integer</text>
<text text-anchor="start" x="562.17" y="-977.7" font-family="DejaVu Sans Mono" font-size="14.00"> &#160;&#160;&#160;User Input: &#160;&#160;&#160;&#160;No</text>
<text text-anchor="start" x="562.17" y="-960.45" font-family="DejaVu Sans Mono" font-size="14.00"> &#160;&#160;&#160;Prints: &#160;&#160;&#160;&#160;&#160;&#160;&#160;&#160;Nothing</text>
<text text-anchor="start" x="562.17" y="-943.2" font-family="DejaVu Sans Mono" font-size="14.00"> &#160;&#160;&#160;Returns: &#160;&#160;&#160;&#160;&#160;&#160;&#160;Result as a list of int</text>
<text text-anchor="start" x="562.17" y="-925.95" font-family="DejaVu Sans Mono" font-size="14.00"> &#160;&#160;&#160;Modifies: &#160;&#160;&#160;&#160;&#160;&#160;Nothing</text>
<text text-anchor="start" x="562.17" y="-908.7" font-family="DejaVu Sans Mono" font-size="14.00"> &#160;&#160;&#160;Calls: &#160;&#160;&#160;&#160;&#160;&#160;&#160;&#160;&#160;Basic python only</text>
<text text-anchor="start" x="562.17" y="-891.45" font-family="DejaVu Sans Mono" font-size="14.00"> &#160;&#160;&#160;Tests: &#160;&#160;&#160;&#160;&#160;&#160;&#160;&#160;&#160;./unit_tests/*</text>
<text text-anchor="start" x="562.17" y="-874.2" font-family="DejaVu Sans Mono" font-size="14.00"> &#160;&#160;&#160;Status: &#160;&#160;&#160;&#160;&#160;&#160;&#160;&#160;Done!</text>
<text text-anchor="start" x="562.17" y="-840.95" font-family="DejaVu Sans Mono" font-size="14.00"> &#160;&#160;&#160;Usage illustrated via some simple doctests:</text>
<text text-anchor="start" x="562.17" y="-823.7" font-family="DejaVu Sans Mono" font-size="14.00"> &#160;&#160;&#160;&gt;&gt;&gt; factor(8)</text>
<text text-anchor="start" x="562.17" y="-806.45" font-family="DejaVu Sans Mono" font-size="14.00"> &#160;&#160;&#160;[1, 2, 4, 8]</text>
<text text-anchor="start" x="562.17" y="-773.2" font-family="DejaVu Sans Mono" font-size="14.00"> &#160;&#160;&#160;&gt;&gt;&gt; factor(10)</text>
<text text-anchor="start" x="562.17" y="-755.95" font-family="DejaVu Sans Mono" font-size="14.00"> &#160;&#160;&#160;[1, 2, 5, 10]</text>
<text text-anchor="start" x="562.17" y="-722.7" font-family="DejaVu Sans Mono" font-size="14.00"> &#160;&#160;&#160;&gt;&gt;&gt; import random</text>
<text text-anchor="start" x="562.17" y="-705.45" font-family="DejaVu Sans Mono" font-size="14.00"> &#160;&#160;&#160;&gt;&gt;&gt; for _ in range(5):</text>
<text text-anchor="start" x="562.17" y="-688.2" font-family="DejaVu Sans Mono" font-size="14.00"> &#160;&#160;&#160;... &#160;&#160;&#160;&#160;num = random.randint(0, 200)</text>
<text text-anchor="start" x="562.17" y="-670.95" font-family="DejaVu Sans Mono" font-size="14.00"> &#160;&#160;&#160;... &#160;&#160;&#160;&#160;assert factor(num) == [i for i in range(1, num // 2 + 1) if not num % i] + [num]</text>
<text text-anchor="start" x="562.17" y="-637.7" font-family="DejaVu Sans Mono" font-size="14.00"> &#160;&#160;&#160;&gt;&gt;&gt; for _ in range(2):</text>
<text text-anchor="start" x="562.17" y="-620.45" font-family="DejaVu Sans Mono" font-size="14.00"> &#160;&#160;&#160;... &#160;&#160;&#160;&#160;num = random.randint(0, 200)</text>
<text text-anchor="start" x="562.17" y="-603.2" font-family="DejaVu Sans Mono" font-size="14.00"> &#160;&#160;&#160;... &#160;&#160;&#160;&#160;factor(num) == [i for i in range(1, num // 2 + 1) if not num % i] + [num]</text>
<text text-anchor="start" x="562.17" y="-585.95" font-family="DejaVu Sans Mono" font-size="14.00"> &#160;&#160;&#160;True</text>
<text text-anchor="start" x="562.17" y="-568.7" font-family="DejaVu Sans Mono" font-size="14.00"> &#160;&#160;&#160;True</text>
<text text-anchor="start" x="562.17" y="-535.45" font-family="DejaVu Sans Mono" font-size="14.00"> &#160;&#160;&#160;&gt;&gt;&gt; print(&quot;Unlike other frameworks, doctest does stdout easily&quot;)</text>
<text text-anchor="start" x="562.17" y="-518.2" font-family="DejaVu Sans Mono" font-size="14.00"> &#160;&#160;&#160;Unlike other frameworks, doctest does stdout easily</text>
<text text-anchor="middle" x="941.67" y="-500.95" font-family="DejaVu Sans Mono" font-size="14.00"> &#160;&#160;&#160;&quot;&quot;&quot;</text>
</g>
<!-- 4 -->
<g id="node7" class="node">
<title>4</title>
<polygon fill="#98fb98" stroke="black" points="1407.83,-400.75 666.26,-400.75 475.5,-364.75 1217.07,-364.75 1407.83,-400.75"/>
<text text-anchor="middle" x="941.67" y="-378.07" font-family="DejaVu Sans Mono" font-size="14.00">return [i for i in range(1, num + 1) if num % i == 0]</text>
</g>
<!-- 3&#45;&gt;4 -->
<g id="edge5" class="edge">
<title>3&#45;&gt;4</title>
<path fill="none" stroke="black" d="M941.67,-492.57C941.67,-460.3 941.67,-431.93 941.67,-412.26"/>
<polygon fill="black" stroke="black" points="945.17,-412.41 941.67,-402.41 938.17,-412.41 945.17,-412.41"/>
</g>
<!-- 8 -->
<g id="node8" class="node">
<title>8</title>
<polygon fill="#ff6752" stroke="black" points="2768.67,-787.88 2572.74,-769.88 2768.67,-751.88 2964.59,-769.88 2768.67,-787.88"/>
<text text-anchor="middle" x="2768.67" y="-765.2" font-family="DejaVu Sans Mono" font-size="14.00">if len(sys.argv) == 3:</text>
</g>
<!-- 9 -->
<g id="node9" class="node">
<title>9</title>
<polygon fill="#e552ff" stroke="#e552ff" points="3277.67,-400.75 3235.67,-400.75 3235.67,-404.75 3223.67,-404.75 3223.67,-364.75 3277.67,-364.75 3277.67,-400.75"/>
<polyline fill="none" stroke="#e552ff" points="3223.67,-400.75 3235.67,-400.75"/>
<text text-anchor="middle" x="3250.67" y="-378.07" font-family="DejaVu Sans Mono" font-size="14.00">len</text>
</g>
<!-- 8&#45;&gt;9 -->
<g id="edge6" class="edge">
<title>8&#45;&gt;9</title>
<path fill="none" stroke="black" stroke-dasharray="5,2" d="M2801.88,-754.45C2883.89,-717.29 3098.11,-610.5 3219.67,-459.75 3230.86,-445.87 3238.51,-427.41 3243.42,-412.15"/>
<polygon fill="black" stroke="black" points="3246.73,-413.28 3246.21,-402.69 3240.02,-411.29 3246.73,-413.28"/>
<text text-anchor="middle" x="3230.29" y="-471.7" font-family="DejaVu Sans Mono" font-size="14.00">calls</text>
</g>
<!-- 12 -->
<g id="node10" class="node">
<title>12</title>
<polygon fill="#fffb81" stroke="black" points="2313.67,-400.75 2259.67,-400.75 2259.67,-364.75 2313.67,-364.75 2313.67,-400.75"/>
</g>
<!-- 8&#45;&gt;12 -->
<g id="edge15" class="edge">
<title>8&#45;&gt;12</title>
<path fill="none" stroke="red" d="M2753.49,-753.05C2708.15,-706.6 2568.04,-569.15 2426.67,-493 2383.94,-469.99 2359.18,-491.71 2322.67,-459.75 2308.43,-447.29 2299.39,-427.98 2293.92,-411.94"/>
<polygon fill="red" stroke="red" points="2297.28,-410.96 2291,-402.43 2290.59,-413.02 2297.28,-410.96"/>
<text text-anchor="middle" x="2489.17" y="-471.7" font-family="DejaVu Sans Mono" font-size="14.00">(len(sys.argv) != 3)</text>
</g>
<!-- 21 -->
<g id="node19" class="node">
<title>21</title>
<polygon fill="orange" stroke="black" points="2768.67,-459.75 2331.92,-382.75 2768.67,-305.75 3205.42,-382.75 2768.67,-459.75"/>
<polyline fill="none" stroke="black" points="2343.73,-384.83 2343.73,-380.67"/>
<polyline fill="none" stroke="black" points="2756.85,-307.83 2780.48,-307.83"/>
<polyline fill="none" stroke="black" points="3193.6,-380.67 3193.6,-384.83"/>
<polyline fill="none" stroke="black" points="2780.48,-457.67 2756.85,-457.67"/>
<text text-anchor="middle" x="2768.67" y="-403.95" font-family="DejaVu Sans Mono" font-size="14.00">num = int(input_file.read().strip())</text>
<text text-anchor="middle" x="2768.67" y="-386.7" font-family="DejaVu Sans Mono" font-size="14.00">factors = factor(num)</text>
<text text-anchor="middle" x="2768.67" y="-369.45" font-family="DejaVu Sans Mono" font-size="14.00">output_file.write(str(factors))</text>
<text text-anchor="middle" x="2768.67" y="-352.2" font-family="DejaVu Sans Mono" font-size="14.00">print(f&#39;Factors of {num} written to {sys.argv[2]}&#39;)</text>
</g>
<!-- 8&#45;&gt;21 -->
<g id="edge26" class="edge">
<title>8&#45;&gt;21</title>
<path fill="none" stroke="green" d="M2768.67,-751.58C2768.67,-703.18 2768.67,-563.84 2768.67,-471.24"/>
<polygon fill="green" stroke="green" points="2772.17,-471.42 2768.67,-461.42 2765.17,-471.42 2772.17,-471.42"/>
<text text-anchor="middle" x="2842.92" y="-471.7" font-family="DejaVu Sans Mono" font-size="14.00">len(sys.argv) == 3</text>
</g>
<!-- 13 -->
<g id="node11" class="node">
<title>13</title>
<polygon fill="orange" stroke="black" points="2315.67,-272.5 1903.67,-230 2315.67,-187.5 2727.67,-230 2315.67,-272.5"/>
<polyline fill="none" stroke="black" points="1915.6,-231.23 1915.6,-228.77"/>
<polyline fill="none" stroke="black" points="2303.73,-188.73 2327.6,-188.73"/>
<polyline fill="none" stroke="black" points="2715.73,-228.77 2715.73,-231.23"/>
<polyline fill="none" stroke="black" points="2327.6,-271.27 2303.73,-271.27"/>
<text text-anchor="middle" x="2315.67" y="-233.95" font-family="DejaVu Sans Mono" font-size="14.00">num = int(input(&#39;Enter an integer to factor: &#39;))</text>
<text text-anchor="middle" x="2315.67" y="-216.7" font-family="DejaVu Sans Mono" font-size="14.00">print(f&#39;Factors of {num}: {factor(num)}&#39;)</text>
</g>
<!-- 12&#45;&gt;13 -->
<g id="edge14" class="edge">
<title>12&#45;&gt;13</title>
<path fill="none" stroke="black" d="M2289.99,-364.46C2293.79,-344.73 2300.18,-311.52 2305.63,-283.17"/>
<polygon fill="black" stroke="black" points="2309.01,-284.14 2307.46,-273.66 2302.13,-282.82 2309.01,-284.14"/>
</g>
<!-- 14 -->
<g id="node14" class="node">
<title>14</title>
<polygon fill="#fffb81" stroke="black" points="2111.67,-146.25 2057.67,-146.25 2057.67,-110.25 2111.67,-110.25 2111.67,-146.25"/>
</g>
<!-- 13&#45;&gt;14 -->
<g id="edge13" class="edge">
<title>13&#45;&gt;14</title>
<path fill="none" stroke="black" d="M2237.46,-195.23C2198.59,-178.44 2153.4,-158.93 2122.31,-145.5"/>
<polygon fill="black" stroke="black" points="2123.89,-142.37 2113.32,-141.62 2121.11,-148.8 2123.89,-142.37"/>
</g>
<!-- 17 -->
<g id="node15" class="node">
<title>17</title>
<polygon fill="#e552ff" stroke="#e552ff" points="2379.67,-146.25 2337.67,-146.25 2337.67,-150.25 2325.67,-150.25 2325.67,-110.25 2379.67,-110.25 2379.67,-146.25"/>
<polyline fill="none" stroke="#e552ff" points="2325.67,-146.25 2337.67,-146.25"/>
<text text-anchor="middle" x="2352.67" y="-123.58" font-family="DejaVu Sans Mono" font-size="14.00">int</text>
</g>
<!-- 13&#45;&gt;17 -->
<g id="edge9" class="edge">
<title>13&#45;&gt;17</title>
<path fill="none" stroke="black" stroke-dasharray="5,2" d="M2330.61,-188.72C2334.53,-178.14 2338.67,-166.98 2342.3,-157.21"/>
<polygon fill="black" stroke="black" points="2345.54,-158.52 2345.74,-147.92 2338.98,-156.08 2345.54,-158.52"/>
<text text-anchor="middle" x="2359.29" y="-166.2" font-family="DejaVu Sans Mono" font-size="14.00">calls</text>
</g>
<!-- 19 -->
<g id="node16" class="node">
<title>19</title>
<polygon fill="#e552ff" stroke="#e552ff" points="2305.29,-146.25 2260.04,-146.25 2260.04,-150.25 2248.04,-150.25 2248.04,-110.25 2305.29,-110.25 2305.29,-146.25"/>
<polyline fill="none" stroke="#e552ff" points="2248.04,-146.25 2260.04,-146.25"/>
<text text-anchor="middle" x="2276.67" y="-123.58" font-family="DejaVu Sans Mono" font-size="14.00">print</text>
</g>
<!-- 13&#45;&gt;19 -->
<g id="edge10" class="edge">
<title>13&#45;&gt;19</title>
<path fill="none" stroke="black" stroke-dasharray="5,2" d="M2292.68,-189.47C2291.13,-186.15 2289.68,-182.8 2288.42,-179.5 2285.75,-172.56 2283.58,-164.83 2281.86,-157.57"/>
<polygon fill="black" stroke="black" points="2285.29,-156.87 2279.78,-147.83 2278.45,-158.34 2285.29,-156.87"/>
<text text-anchor="middle" x="2308.29" y="-166.2" font-family="DejaVu Sans Mono" font-size="14.00">calls</text>
</g>
<!-- 15 -->
<g id="node12" class="node">
<title>15</title>
<polygon fill="#fffb81" stroke="black" points="1885.29,-248 1432.04,-248 1432.04,-212 1885.29,-212 1885.29,-248"/>
<text text-anchor="middle" x="1658.67" y="-225.32" font-family="DejaVu Sans Mono" font-size="14.00">print(&#39;Invalid input! Please enter a valid integer.&#39;)</text>
</g>
<!-- 16 -->
<g id="node13" class="node">
<title>16</title>
<polygon fill="#e552ff" stroke="#e552ff" points="1687.29,-146.25 1642.04,-146.25 1642.04,-150.25 1630.04,-150.25 1630.04,-110.25 1687.29,-110.25 1687.29,-146.25"/>
<polyline fill="none" stroke="#e552ff" points="1630.04,-146.25 1642.04,-146.25"/>
<text text-anchor="middle" x="1658.67" y="-123.58" font-family="DejaVu Sans Mono" font-size="14.00">print</text>
</g>
<!-- 15&#45;&gt;16 -->
<g id="edge7" class="edge">
<title>15&#45;&gt;16</title>
<path fill="none" stroke="black" stroke-dasharray="5,2" d="M1658.67,-211.62C1658.67,-196.82 1658.67,-175.25 1658.67,-157.9"/>
<polygon fill="black" stroke="black" points="1662.17,-157.94 1658.67,-147.94 1655.17,-157.94 1662.17,-157.94"/>
<text text-anchor="middle" x="1679.29" y="-166.2" font-family="DejaVu Sans Mono" font-size="14.00">calls</text>
</g>
<!-- 15&#45;&gt;14 -->
<g id="edge8" class="edge">
<title>15&#45;&gt;14</title>
<path fill="none" stroke="black" d="M1733.36,-211.51C1824.68,-190.13 1975.75,-154.75 2046.24,-138.25"/>
<polygon fill="black" stroke="black" points="2046.82,-141.71 2055.76,-136.02 2045.23,-134.89 2046.82,-141.71"/>
</g>
<!-- 18 -->
<g id="node17" class="node">
<title>18</title>
<polygon fill="#e552ff" stroke="#e552ff" points="2382.29,-85.25 2337.04,-85.25 2337.04,-89.25 2325.04,-89.25 2325.04,-49.25 2382.29,-49.25 2382.29,-85.25"/>
<polyline fill="none" stroke="#e552ff" points="2325.04,-85.25 2337.04,-85.25"/>
<text text-anchor="middle" x="2353.67" y="-62.58" font-family="DejaVu Sans Mono" font-size="14.00">input</text>
</g>
<!-- 17&#45;&gt;18 -->
<g id="edge11" class="edge">
<title>17&#45;&gt;18</title>
<path fill="none" stroke="black" d="M2352.96,-109.87C2353.03,-105.82 2353.1,-101.41 2353.18,-97.02"/>
<polygon fill="black" stroke="black" points="2356.67,-97.28 2353.34,-87.23 2349.68,-97.17 2356.67,-97.28"/>
</g>
<!-- 20 -->
<g id="node18" class="node">
<title>20</title>
<polygon fill="#e552ff" stroke="#e552ff" points="2307.42,-85.25 2253.92,-85.25 2253.92,-89.25 2241.92,-89.25 2241.92,-49.25 2307.42,-49.25 2307.42,-85.25"/>
<polyline fill="none" stroke="#e552ff" points="2241.92,-85.25 2253.92,-85.25"/>
<text text-anchor="middle" x="2274.67" y="-62.58" font-family="DejaVu Sans Mono" font-size="14.00">factor</text>
</g>
<!-- 19&#45;&gt;20 -->
<g id="edge12" class="edge">
<title>19&#45;&gt;20</title>
<path fill="none" stroke="black" d="M2276.08,-109.87C2275.94,-105.82 2275.79,-101.41 2275.64,-97.02"/>
<polygon fill="black" stroke="black" points="2279.15,-97.1 2275.31,-87.23 2272.15,-97.34 2279.15,-97.1"/>
</g>
<!-- 27 -->
<g id="node24" class="node">
<title>27</title>
<polygon fill="#e552ff" stroke="#e552ff" points="3205.67,-248 3163.67,-248 3163.67,-252 3151.67,-252 3151.67,-212 3205.67,-212 3205.67,-248"/>
<polyline fill="none" stroke="#e552ff" points="3151.67,-248 3163.67,-248"/>
<text text-anchor="middle" x="3178.67" y="-225.32" font-family="DejaVu Sans Mono" font-size="14.00">open</text>
</g>
<!-- 21&#45;&gt;27 -->
<g id="edge18" class="edge">
<title>21&#45;&gt;27</title>
<path fill="none" stroke="black" stroke-dasharray="5,2" d="M2965.05,-340.03C3009.03,-328.34 3054.98,-314.22 3096.67,-297.75 3118.36,-289.18 3124.52,-287.15 3142.67,-272.5 3148.32,-267.94 3153.79,-262.42 3158.69,-256.92"/>
<polygon fill="black" stroke="black" points="3161.11,-259.48 3164.89,-249.58 3155.76,-254.96 3161.11,-259.48"/>
<text text-anchor="middle" x="3152.29" y="-284.45" font-family="DejaVu Sans Mono" font-size="14.00">calls</text>
</g>
<!-- 28 -->
<g id="node25" class="node">
<title>28</title>
<polygon fill="#e552ff" stroke="#e552ff" points="3277.67,-248 3235.67,-248 3235.67,-252 3223.67,-252 3223.67,-212 3277.67,-212 3277.67,-248"/>
<polyline fill="none" stroke="#e552ff" points="3223.67,-248 3235.67,-248"/>
<text text-anchor="middle" x="3250.67" y="-225.32" font-family="DejaVu Sans Mono" font-size="14.00">int</text>
</g>
<!-- 21&#45;&gt;28 -->
<g id="edge19" class="edge">
<title>21&#45;&gt;28</title>
<path fill="none" stroke="black" stroke-dasharray="5,2" d="M3010.33,-347.92C3066.19,-335.77 3124.51,-319.48 3176.67,-297.75 3195.38,-289.95 3199.44,-285.89 3214.67,-272.5 3220.12,-267.7 3225.51,-262.09 3230.4,-256.57"/>
<polygon fill="black" stroke="black" points="3232.81,-259.14 3236.62,-249.26 3227.47,-254.61 3232.81,-259.14"/>
<text text-anchor="middle" x="3225.29" y="-284.45" font-family="DejaVu Sans Mono" font-size="14.00">calls</text>
</g>
<!-- 30 -->
<g id="node26" class="node">
<title>30</title>
<polygon fill="#e552ff" stroke="#e552ff" points="2799.67,-248 2757.67,-248 2757.67,-252 2745.67,-252 2745.67,-212 2799.67,-212 2799.67,-248"/>
<polyline fill="none" stroke="#e552ff" points="2745.67,-248 2757.67,-248"/>
<text text-anchor="middle" x="2772.67" y="-225.32" font-family="DejaVu Sans Mono" font-size="14.00">open</text>
</g>
<!-- 21&#45;&gt;30 -->
<g id="edge20" class="edge">
<title>21&#45;&gt;30</title>
<path fill="none" stroke="black" stroke-dasharray="5,2" d="M2770.68,-305.93C2771.12,-289.43 2771.55,-272.95 2771.9,-259.67"/>
<polygon fill="black" stroke="black" points="2775.4,-260.06 2772.16,-249.98 2768.4,-259.88 2775.4,-260.06"/>
<text text-anchor="middle" x="2791.29" y="-284.45" font-family="DejaVu Sans Mono" font-size="14.00">calls</text>
</g>
<!-- 31 -->
<g id="node27" class="node">
<title>31</title>
<polygon fill="#e552ff" stroke="#e552ff" points="2883.42,-248 2829.92,-248 2829.92,-252 2817.92,-252 2817.92,-212 2883.42,-212 2883.42,-248"/>
<polyline fill="none" stroke="#e552ff" points="2817.92,-248 2829.92,-248"/>
<text text-anchor="middle" x="2850.67" y="-225.32" font-family="DejaVu Sans Mono" font-size="14.00">factor</text>
</g>
<!-- 21&#45;&gt;31 -->
<g id="edge21" class="edge">
<title>21&#45;&gt;31</title>
<path fill="none" stroke="black" stroke-dasharray="5,2" d="M2807.8,-312.16C2810.47,-307.29 2813.12,-302.45 2815.67,-297.75 2822.66,-284.85 2830.24,-270.44 2836.55,-258.32"/>
<polygon fill="black" stroke="black" points="2839.53,-260.19 2841.03,-249.7 2833.32,-256.96 2839.53,-260.19"/>
<text text-anchor="middle" x="2844.29" y="-284.45" font-family="DejaVu Sans Mono" font-size="14.00">calls</text>
</g>
<!-- 32 -->
<g id="node28" class="node">
<title>32</title>
<polygon fill="#e552ff" stroke="#e552ff" points="3057.79,-248 2913.54,-248 2913.54,-252 2901.54,-252 2901.54,-212 3057.79,-212 3057.79,-248"/>
<polyline fill="none" stroke="#e552ff" points="2901.54,-248 2913.54,-248"/>
<text text-anchor="middle" x="2979.67" y="-225.32" font-family="DejaVu Sans Mono" font-size="14.00">output_file.write</text>
</g>
<!-- 21&#45;&gt;32 -->
<g id="edge22" class="edge">
<title>21&#45;&gt;32</title>
<path fill="none" stroke="black" stroke-dasharray="5,2" d="M2854.49,-320.43C2886.72,-297.41 2921.49,-272.56 2946.19,-254.92"/>
<polygon fill="black" stroke="black" points="2948.13,-257.83 2954.23,-249.17 2944.06,-252.14 2948.13,-257.83"/>
<text text-anchor="middle" x="2925.29" y="-284.45" font-family="DejaVu Sans Mono" font-size="14.00">calls</text>
</g>
<!-- 34 -->
<g id="node29" class="node">
<title>34</title>
<polygon fill="#e552ff" stroke="#e552ff" points="3133.29,-248 3088.04,-248 3088.04,-252 3076.04,-252 3076.04,-212 3133.29,-212 3133.29,-248"/>
<polyline fill="none" stroke="#e552ff" points="3076.04,-248 3088.04,-248"/>
<text text-anchor="middle" x="3104.67" y="-225.32" font-family="DejaVu Sans Mono" font-size="14.00">print</text>
</g>
<!-- 21&#45;&gt;34 -->
<g id="edge23" class="edge">
<title>21&#45;&gt;34</title>
<path fill="none" stroke="black" stroke-dasharray="5,2" d="M2938.62,-335.25C2982.37,-319.13 3027.99,-298.42 3066.67,-272.5 3073.21,-268.12 3079.4,-262.38 3084.81,-256.57"/>
<polygon fill="black" stroke="black" points="3087.21,-259.15 3091.14,-249.31 3081.93,-254.55 3087.21,-259.15"/>
<text text-anchor="middle" x="3072.29" y="-284.45" font-family="DejaVu Sans Mono" font-size="14.00">calls</text>
</g>
<!-- 23 -->
<g id="node20" class="node">
<title>23</title>
<polygon fill="#fffb81" stroke="black" points="2417.92,-787.88 1923.42,-787.88 1923.42,-751.88 2417.92,-751.88 2417.92,-787.88"/>
<text text-anchor="middle" x="2170.67" y="-765.2" font-family="DejaVu Sans Mono" font-size="14.00">print(&#39;Please provide a valid integer in the input file.&#39;)</text>
</g>
<!-- 24 -->
<g id="node21" class="node">
<title>24</title>
<polygon fill="#e552ff" stroke="#e552ff" points="2199.29,-400.75 2154.04,-400.75 2154.04,-404.75 2142.04,-404.75 2142.04,-364.75 2199.29,-364.75 2199.29,-400.75"/>
<polyline fill="none" stroke="#e552ff" points="2142.04,-400.75 2154.04,-400.75"/>
<text text-anchor="middle" x="2170.67" y="-378.07" font-family="DejaVu Sans Mono" font-size="14.00">print</text>
</g>
<!-- 23&#45;&gt;24 -->
<g id="edge16" class="edge">
<title>23&#45;&gt;24</title>
<path fill="none" stroke="black" stroke-dasharray="5,2" d="M2170.67,-751.58C2170.67,-690.99 2170.67,-487.93 2170.67,-412.38"/>
<polygon fill="black" stroke="black" points="2174.17,-412.51 2170.67,-402.51 2167.17,-412.51 2174.17,-412.51"/>
<text text-anchor="middle" x="2191.29" y="-471.7" font-family="DejaVu Sans Mono" font-size="14.00">calls</text>
</g>
<!-- 25 -->
<g id="node22" class="node">
<title>25</title>
<polygon fill="#fffb81" stroke="black" points="1820.67,-787.88 1474.67,-787.88 1474.67,-751.88 1820.67,-751.88 1820.67,-787.88"/>
<text text-anchor="middle" x="1647.67" y="-765.2" font-family="DejaVu Sans Mono" font-size="14.00">print(&#39;Input or output file not found.&#39;)</text>
</g>
<!-- 26 -->
<g id="node23" class="node">
<title>26</title>
<polygon fill="#e552ff" stroke="#e552ff" points="1676.29,-400.75 1631.04,-400.75 1631.04,-404.75 1619.04,-404.75 1619.04,-364.75 1676.29,-364.75 1676.29,-400.75"/>
<polyline fill="none" stroke="#e552ff" points="1619.04,-400.75 1631.04,-400.75"/>
<text text-anchor="middle" x="1647.67" y="-378.07" font-family="DejaVu Sans Mono" font-size="14.00">print</text>
</g>
<!-- 25&#45;&gt;26 -->
<g id="edge17" class="edge">
<title>25&#45;&gt;26</title>
<path fill="none" stroke="black" stroke-dasharray="5,2" d="M1647.67,-751.58C1647.67,-690.99 1647.67,-487.93 1647.67,-412.38"/>
<polygon fill="black" stroke="black" points="1651.17,-412.51 1647.67,-402.51 1644.17,-412.51 1651.17,-412.51"/>
<text text-anchor="middle" x="1668.29" y="-471.7" font-family="DejaVu Sans Mono" font-size="14.00">calls</text>
</g>
<!-- 29 -->
<g id="node30" class="node">
<title>29</title>
<polygon fill="#e552ff" stroke="#e552ff" points="3277.29,-146.25 3100.04,-146.25 3100.04,-150.25 3088.04,-150.25 3088.04,-110.25 3277.29,-110.25 3277.29,-146.25"/>
<polyline fill="none" stroke="#e552ff" points="3088.04,-146.25 3100.04,-146.25"/>
<text text-anchor="middle" x="3182.67" y="-123.58" font-family="DejaVu Sans Mono" font-size="14.00">input_file.read.strip</text>
</g>
<!-- 28&#45;&gt;29 -->
<g id="edge24" class="edge">
<title>28&#45;&gt;29</title>
<path fill="none" stroke="black" d="M3238.82,-211.62C3228.29,-196.18 3212.74,-173.36 3200.67,-155.66"/>
<polygon fill="black" stroke="black" points="3203.75,-153.97 3195.23,-147.68 3197.97,-157.91 3203.75,-153.97"/>
</g>
<!-- 33 -->
<g id="node31" class="node">
<title>33</title>
<polygon fill="#e552ff" stroke="#e552ff" points="3006.67,-146.25 2964.67,-146.25 2964.67,-150.25 2952.67,-150.25 2952.67,-110.25 3006.67,-110.25 3006.67,-146.25"/>
<polyline fill="none" stroke="#e552ff" points="2952.67,-146.25 2964.67,-146.25"/>
<text text-anchor="middle" x="2979.67" y="-123.58" font-family="DejaVu Sans Mono" font-size="14.00">str</text>
</g>
<!-- 32&#45;&gt;33 -->
<g id="edge25" class="edge">
<title>32&#45;&gt;33</title>
<path fill="none" stroke="black" d="M2979.67,-211.62C2979.67,-196.82 2979.67,-175.25 2979.67,-157.9"/>
<polygon fill="black" stroke="black" points="2983.17,-157.94 2979.67,-147.94 2976.17,-157.94 2983.17,-157.94"/>
</g>
<!-- input -->
<g id="node32" class="node">
<title>input</title>
<polygon fill="#afeeee" stroke="black" points="3697.55,-400.75 3603.88,-400.75 3579.78,-364.75 3673.45,-364.75 3697.55,-400.75"/>
<text text-anchor="middle" x="3638.67" y="-378.07" font-family="DejaVu Sans Mono" font-size="14.00">input</text>
</g>
<!-- call -->
<g id="node37" class="node">
<title>call</title>
<polygon fill="#e552ff" stroke="black" points="3665.67,-248 3623.67,-248 3623.67,-252 3611.67,-252 3611.67,-212 3665.67,-212 3665.67,-248"/>
<polyline fill="none" stroke="black" points="3611.67,-248 3623.67,-248"/>
<text text-anchor="middle" x="3638.67" y="-225.32" font-family="DejaVu Sans Mono" font-size="14.00">call</text>
</g>
<!-- input&#45;&gt;call -->
<!-- default -->
<g id="node33" class="node">
<title>default</title>
<polygon fill="#fffb81" stroke="black" points="3531.54,-248 3457.79,-248 3457.79,-212 3531.54,-212 3531.54,-248"/>
<text text-anchor="middle" x="3494.67" y="-225.32" font-family="DejaVu Sans Mono" font-size="14.00">default</text>
</g>
<!-- if -->
<g id="node34" class="node">
<title>if</title>
<polygon fill="#ff6752" stroke="black" points="3638.67,-787.88 3606.42,-769.88 3638.67,-751.88 3670.91,-769.88 3638.67,-787.88"/>
<text text-anchor="middle" x="3638.67" y="-765.2" font-family="DejaVu Sans Mono" font-size="14.00">if</text>
</g>
<!-- if&#45;&gt;input -->
<!-- for -->
<g id="node35" class="node">
<title>for</title>
<polygon fill="#ffbe52" stroke="black" points="3586.67,-769.88 3570.17,-787.88 3537.16,-787.88 3520.66,-769.88 3537.16,-751.88 3570.17,-751.88 3586.67,-769.88"/>
<text text-anchor="middle" x="3553.67" y="-765.2" font-family="DejaVu Sans Mono" font-size="14.00">for</text>
</g>
<!-- return -->
<g id="node38" class="node">
<title>return</title>
<polygon fill="#98fb98" stroke="black" points="3562.03,-400.75 3454.87,-400.75 3427.3,-364.75 3534.46,-364.75 3562.03,-400.75"/>
<text text-anchor="middle" x="3494.67" y="-378.07" font-family="DejaVu Sans Mono" font-size="14.00">return</text>
</g>
<!-- for&#45;&gt;return -->
<!-- while -->
<g id="node36" class="node">
<title>while</title>
<polygon fill="#ffbe52" stroke="black" points="3503.04,-769.88 3479.85,-787.88 3433.48,-787.88 3410.29,-769.88 3433.48,-751.88 3479.85,-751.88 3503.04,-769.88"/>
<text text-anchor="middle" x="3456.67" y="-765.2" font-family="DejaVu Sans Mono" font-size="14.00">while</text>
</g>
<!-- return&#45;&gt;default -->
<!-- try -->
<g id="node39" class="node">
<title>try</title>
<polygon fill="orange" stroke="black" points="3351.67,-787.88 3311.24,-769.88 3351.67,-751.88 3392.09,-769.88 3351.67,-787.88"/>
<polyline fill="none" stroke="black" points="3322.2,-774.76 3322.2,-764.99"/>
<polyline fill="none" stroke="black" points="3340.7,-756.76 3362.63,-756.76"/>
<polyline fill="none" stroke="black" points="3381.13,-764.99 3381.13,-774.76"/>
<polyline fill="none" stroke="black" points="3362.63,-782.99 3340.7,-782.99"/>
<text text-anchor="middle" x="3351.67" y="-765.2" font-family="DejaVu Sans Mono" font-size="14.00">try</text>
</g>
<!-- raise -->
<g id="node40" class="node">
<title>raise</title>
<polygon fill="#98fb98" stroke="black" points="3409.31,-388.31 3359.67,-400.75 3310.03,-388.31 3310.07,-368.19 3409.26,-368.19 3409.31,-388.31"/>
<text text-anchor="middle" x="3359.67" y="-378.07" font-family="DejaVu Sans Mono" font-size="14.00">raise</text>
</g>
<!-- try&#45;&gt;raise -->
</g>
</svg>
