<?xml version="1.0" encoding="UTF-8" standalone="no"?>
<!DOCTYPE svg PUBLIC "-//W3C//DTD SVG 1.1//EN"
 "http://www.w3.org/Graphics/SVG/1.1/DTD/svg11.dtd">
<!-- Generated by graphviz version 7.1.0 (0)
 -->
<!-- Title: cluster0factor.py Pages: 1 -->
<svg width="1917pt" height="1072pt"
 viewBox="0.00 0.00 1917.00 1072.00" xmlns="http://www.w3.org/2000/svg" xmlns:xlink="http://www.w3.org/1999/xlink">
<g id="graph0" class="graph" transform="scale(1 1) rotate(0) translate(4 1068)">
<title>cluster0factor.py</title>
<polygon fill="white" stroke="none" points="-4,4 -4,-1068 1913,-1068 1913,4 -4,4"/>
<text text-anchor="middle" x="954.5" y="-7.8" font-family="DejaVu Sans Mono" font-size="14.00">factor.py</text>
<g id="clust1" class="cluster">
<title>cluster_8</title>
<polygon fill="purple" stroke="purple" points="8,-312 8,-364 164,-364 164,-312 8,-312"/>
</g>
<g id="clust2" class="cluster">
<title>cluster_11</title>
<polygon fill="purple" stroke="purple" points="127,-228.5 127,-280.5 197,-280.5 197,-228.5 127,-228.5"/>
</g>
<g id="clust3" class="cluster">
<title>cluster_13</title>
<polygon fill="purple" stroke="purple" points="184,-31 184,-197 540,-197 540,-31 184,-31"/>
</g>
<g id="clust4" class="cluster">
<title>cluster_15</title>
<polygon fill="purple" stroke="purple" points="561,-92 561,-197 719,-197 719,-92 561,-92"/>
</g>
<g id="clust5" class="cluster">
<title>cluster0factor</title>
<polygon fill="none" stroke="black" points="442,-471 442,-1056 1512,-1056 1512,-471 442,-471"/>
<text text-anchor="middle" x="977" y="-1040.8" font-family="DejaVu Sans Mono" font-size="14.00">factor</text>
</g>
<g id="clust6" class="cluster">
<title>cluster_KEY</title>
<polygon fill="none" stroke="black" points="1520,-395 1520,-827.5 1901,-827.5 1901,-395 1520,-395"/>
<text text-anchor="middle" x="1710.5" y="-812.3" font-family="DejaVu Sans Mono" font-size="14.00">KEY</text>
</g>
<!-- 1 -->
<g id="node1" class="node">
<title>1</title>
<polygon fill="#fffb81" stroke="black" points="377,-797.5 63,-797.5 63,-759.5 377,-759.5 377,-797.5"/>
<text text-anchor="start" x="71" y="-782.3" font-family="DejaVu Sans Mono" font-size="14.00">import sys</text>
<text text-anchor="middle" x="220" y="-767.3" font-family="DejaVu Sans Mono" font-size="14.00">def factor(num: int) &#45;&gt;list[int]:...</text>
</g>
<!-- 7 -->
<g id="node2" class="node">
<title>7</title>
<polygon fill="#ff6752" stroke="black" points="220,-515 7.85,-497 220,-479 432.15,-497 220,-515"/>
<text text-anchor="middle" x="220" y="-493.3" font-family="DejaVu Sans Mono" font-size="14.00">if __name__ == &#39;__main__&#39;:</text>
</g>
<!-- 1&#45;&gt;7 -->
<g id="edge18" class="edge">
<title>1&#45;&gt;7</title>
<path fill="none" stroke="black" d="M220,-759.16C220,-711.64 220,-584.22 220,-526.78"/>
<polygon fill="black" stroke="black" points="223.5,-526.84 220,-516.84 216.5,-526.84 223.5,-526.84"/>
</g>
<!-- 8 -->
<g id="node3" class="node">
<title>8</title>
<polygon fill="#fffb81" stroke="black" points="298.5,-440 141.5,-440 141.5,-402 298.5,-402 298.5,-440"/>
<text text-anchor="start" x="149.5" y="-424.8" font-family="DejaVu Sans Mono" font-size="14.00">import doctest</text>
<text text-anchor="middle" x="220" y="-409.8" font-family="DejaVu Sans Mono" font-size="14.00">doctest.testmod()</text>
</g>
<!-- 7&#45;&gt;8 -->
<g id="edge17" class="edge">
<title>7&#45;&gt;8</title>
<path fill="none" stroke="green" d="M220,-478.84C220,-470.82 220,-461.04 220,-451.87"/>
<polygon fill="green" stroke="green" points="223.5,-451.88 220,-441.88 216.5,-451.88 223.5,-451.88"/>
<text text-anchor="middle" x="311" y="-451.8" font-family="DejaVu Sans Mono" font-size="14.00">__name__ == &#39;__main__&#39;</text>
</g>
<!-- 10 -->
<g id="node4" class="node">
<title>10</title>
<polygon fill="#e552ff" stroke="#e552ff" points="156,-356 28,-356 28,-360 16,-360 16,-320 156,-320 156,-356"/>
<polyline fill="none" stroke="#e552ff" points="16,-356 28,-356"/>
<text text-anchor="middle" x="86" y="-334.3" font-family="DejaVu Sans Mono" font-size="14.00">doctest.testmod</text>
</g>
<!-- 8&#45;&gt;10 -->
<g id="edge1" class="edge">
<title>8&#45;&gt;10</title>
<path fill="none" stroke="black" stroke-dasharray="5,2" d="M189.59,-401.62C170.35,-389.99 145.29,-374.84 124.65,-362.36"/>
<polygon fill="black" stroke="black" points="126.57,-359.44 116.2,-357.26 122.95,-365.43 126.57,-359.44"/>
<text text-anchor="middle" x="186" y="-375.8" font-family="DejaVu Sans Mono" font-size="14.00">calls</text>
</g>
<!-- 11 -->
<g id="node5" class="node">
<title>11</title>
<polygon fill="#ff6752" stroke="black" points="356,-356 174.01,-338 356,-320 537.99,-338 356,-356"/>
<text text-anchor="middle" x="356" y="-334.3" font-family="DejaVu Sans Mono" font-size="14.00">if len(sys.argv) == 3:</text>
</g>
<!-- 8&#45;&gt;11 -->
<g id="edge16" class="edge">
<title>8&#45;&gt;11</title>
<path fill="none" stroke="black" d="M250.86,-401.62C271.83,-389.13 299.61,-372.59 321.34,-359.64"/>
<polygon fill="black" stroke="black" points="323.06,-362.69 329.86,-354.57 319.48,-356.68 323.06,-362.69"/>
</g>
<!-- 12 -->
<g id="node6" class="node">
<title>12</title>
<polygon fill="#e552ff" stroke="#e552ff" points="189,-272.5 147,-272.5 147,-276.5 135,-276.5 135,-236.5 189,-236.5 189,-272.5"/>
<polyline fill="none" stroke="#e552ff" points="135,-272.5 147,-272.5"/>
<text text-anchor="middle" x="162" y="-250.8" font-family="DejaVu Sans Mono" font-size="14.00">len</text>
</g>
<!-- 11&#45;&gt;12 -->
<g id="edge2" class="edge">
<title>11&#45;&gt;12</title>
<path fill="none" stroke="black" stroke-dasharray="5,2" d="M310.03,-324.08C278.02,-314.26 234.81,-299.33 199,-281 197.71,-280.34 196.41,-279.64 195.12,-278.91"/>
<polygon fill="black" stroke="black" points="196.96,-275.94 186.61,-273.7 193.31,-281.91 196.96,-275.94"/>
<text text-anchor="middle" x="270" y="-292.8" font-family="DejaVu Sans Mono" font-size="14.00">calls</text>
</g>
<!-- 13 -->
<g id="node7" class="node">
<title>13</title>
<polygon fill="#fffb81" stroke="black" points="504.5,-281 207.5,-281 207.5,-228 504.5,-228 504.5,-281"/>
<text text-anchor="start" x="215.5" y="-265.8" font-family="DejaVu Sans Mono" font-size="14.00">num = int(finput.read())</text>
<text text-anchor="middle" x="356" y="-250.8" font-family="DejaVu Sans Mono" font-size="14.00">foutput.write(str(factor(num)) + &#39;</text>
<text text-anchor="middle" x="356" y="-235.8" font-family="DejaVu Sans Mono" font-size="14.00">&#39;)</text>
</g>
<!-- 11&#45;&gt;13 -->
<g id="edge10" class="edge">
<title>11&#45;&gt;13</title>
<path fill="none" stroke="green" d="M356,-319.72C356,-311.81 356,-302.12 356,-292.68"/>
<polygon fill="green" stroke="green" points="359.5,-292.95 356,-282.95 352.5,-292.95 359.5,-292.95"/>
<text text-anchor="middle" x="430.5" y="-292.8" font-family="DejaVu Sans Mono" font-size="14.00">len(sys.argv) == 3</text>
</g>
<!-- 15 -->
<g id="node15" class="node">
<title>15</title>
<polygon fill="#fffb81" stroke="black" points="687.5,-273.5 522.5,-273.5 522.5,-235.5 687.5,-235.5 687.5,-273.5"/>
<text text-anchor="start" x="530.5" y="-258.3" font-family="DejaVu Sans Mono" font-size="14.00">num = int(input())</text>
<text text-anchor="middle" x="605" y="-243.3" font-family="DejaVu Sans Mono" font-size="14.00">print(factor(num))</text>
</g>
<!-- 11&#45;&gt;15 -->
<g id="edge15" class="edge">
<title>11&#45;&gt;15</title>
<path fill="none" stroke="red" d="M423.68,-326.26C450.66,-320.99 481.72,-313.65 509,-304 527.66,-297.4 547.33,-287.95 563.97,-279.14"/>
<polygon fill="red" stroke="red" points="565.43,-282.32 572.57,-274.49 562.11,-276.17 565.43,-282.32"/>
<text text-anchor="middle" x="627" y="-292.8" font-family="DejaVu Sans Mono" font-size="14.00">(len(sys.argv) != 3)</text>
</g>
<!-- 20 -->
<g id="node8" class="node">
<title>20</title>
<polygon fill="#e552ff" stroke="#e552ff" points="246,-189 204,-189 204,-193 192,-193 192,-153 246,-153 246,-189"/>
<polyline fill="none" stroke="#e552ff" points="192,-189 204,-189"/>
<text text-anchor="middle" x="219" y="-167.3" font-family="DejaVu Sans Mono" font-size="14.00">open</text>
</g>
<!-- 13&#45;&gt;20 -->
<g id="edge3" class="edge">
<title>13&#45;&gt;20</title>
<path fill="none" stroke="black" stroke-dasharray="5,2" d="M269.2,-227.55C264.95,-225.23 260.86,-222.72 257,-220 248.85,-214.26 241.56,-206.27 235.61,-198.46"/>
<polygon fill="black" stroke="black" points="238.55,-196.56 229.91,-190.42 232.84,-200.61 238.55,-196.56"/>
<text text-anchor="middle" x="278" y="-208.8" font-family="DejaVu Sans Mono" font-size="14.00">calls</text>
</g>
<!-- 21 -->
<g id="node9" class="node">
<title>21</title>
<polygon fill="#e552ff" stroke="#e552ff" points="318,-189 276,-189 276,-193 264,-193 264,-153 318,-153 318,-189"/>
<polyline fill="none" stroke="#e552ff" points="264,-189 276,-189"/>
<text text-anchor="middle" x="291" y="-167.3" font-family="DejaVu Sans Mono" font-size="14.00">int</text>
</g>
<!-- 13&#45;&gt;21 -->
<g id="edge4" class="edge">
<title>13&#45;&gt;21</title>
<path fill="none" stroke="black" stroke-dasharray="5,2" d="M320,-227.72C317.48,-225.25 315.11,-222.67 313,-220 308.22,-213.96 304.21,-206.72 300.98,-199.71"/>
<polygon fill="black" stroke="black" points="304.21,-198.37 297.12,-190.49 297.75,-201.07 304.21,-198.37"/>
<text text-anchor="middle" x="334" y="-208.8" font-family="DejaVu Sans Mono" font-size="14.00">calls</text>
</g>
<!-- 23 -->
<g id="node10" class="node">
<title>23</title>
<polygon fill="#e552ff" stroke="#e552ff" points="390,-189 348,-189 348,-193 336,-193 336,-153 390,-153 390,-189"/>
<polyline fill="none" stroke="#e552ff" points="336,-189 348,-189"/>
<text text-anchor="middle" x="363" y="-167.3" font-family="DejaVu Sans Mono" font-size="14.00">open</text>
</g>
<!-- 13&#45;&gt;23 -->
<g id="edge5" class="edge">
<title>13&#45;&gt;23</title>
<path fill="none" stroke="black" stroke-dasharray="5,2" d="M358.21,-227.71C358.95,-219.12 359.78,-209.5 360.54,-200.7"/>
<polygon fill="black" stroke="black" points="364.01,-201.15 361.38,-190.89 357.03,-200.56 364.01,-201.15"/>
<text text-anchor="middle" x="381" y="-208.8" font-family="DejaVu Sans Mono" font-size="14.00">calls</text>
</g>
<!-- 24 -->
<g id="node11" class="node">
<title>24</title>
<polygon fill="#e552ff" stroke="#e552ff" points="532,-189 420,-189 420,-193 408,-193 408,-153 532,-153 532,-189"/>
<polyline fill="none" stroke="#e552ff" points="408,-189 420,-189"/>
<text text-anchor="middle" x="470" y="-167.3" font-family="DejaVu Sans Mono" font-size="14.00">foutput.write</text>
</g>
<!-- 13&#45;&gt;24 -->
<g id="edge6" class="edge">
<title>13&#45;&gt;24</title>
<path fill="none" stroke="black" stroke-dasharray="5,2" d="M395.17,-227.55C398.85,-225.02 402.51,-222.48 406,-220 416.67,-212.43 428.15,-203.94 438.4,-196.22"/>
<polygon fill="black" stroke="black" points="440.34,-199.14 446.2,-190.32 436.12,-193.56 440.34,-199.14"/>
<text text-anchor="middle" x="446" y="-208.8" font-family="DejaVu Sans Mono" font-size="14.00">calls</text>
</g>
<!-- 22 -->
<g id="node12" class="node">
<title>22</title>
<polygon fill="#e552ff" stroke="#e552ff" points="344.5,-136 249.5,-136 249.5,-140 237.5,-140 237.5,-100 344.5,-100 344.5,-136"/>
<polyline fill="none" stroke="#e552ff" points="237.5,-136 249.5,-136"/>
<text text-anchor="middle" x="291" y="-114.3" font-family="DejaVu Sans Mono" font-size="14.00">finput.read</text>
</g>
<!-- 21&#45;&gt;22 -->
<g id="edge7" class="edge">
<title>21&#45;&gt;22</title>
<path fill="none" stroke="black" d="M291,-152.73C291,-151.07 291,-149.36 291,-147.62"/>
<polygon fill="black" stroke="black" points="294.5,-147.76 291,-137.76 287.5,-147.76 294.5,-147.76"/>
</g>
<!-- 25 -->
<g id="node13" class="node">
<title>25</title>
<polygon fill="#e552ff" stroke="#e552ff" points="497,-136 455,-136 455,-140 443,-140 443,-100 497,-100 497,-136"/>
<polyline fill="none" stroke="#e552ff" points="443,-136 455,-136"/>
<text text-anchor="middle" x="470" y="-114.3" font-family="DejaVu Sans Mono" font-size="14.00">str</text>
</g>
<!-- 24&#45;&gt;25 -->
<g id="edge8" class="edge">
<title>24&#45;&gt;25</title>
<path fill="none" stroke="black" d="M470,-152.73C470,-151.07 470,-149.36 470,-147.62"/>
<polygon fill="black" stroke="black" points="473.5,-147.76 470,-137.76 466.5,-147.76 473.5,-147.76"/>
</g>
<!-- 26 -->
<g id="node14" class="node">
<title>26</title>
<polygon fill="#e552ff" stroke="#e552ff" points="503,-75 449,-75 449,-79 437,-79 437,-39 503,-39 503,-75"/>
<polyline fill="none" stroke="#e552ff" points="437,-75 449,-75"/>
<text text-anchor="middle" x="470" y="-53.3" font-family="DejaVu Sans Mono" font-size="14.00">factor</text>
</g>
<!-- 25&#45;&gt;26 -->
<g id="edge9" class="edge">
<title>25&#45;&gt;26</title>
<path fill="none" stroke="black" d="M470,-99.62C470,-95.57 470,-91.16 470,-86.77"/>
<polygon fill="black" stroke="black" points="473.5,-86.98 470,-76.98 466.5,-86.98 473.5,-86.98"/>
</g>
<!-- 16 -->
<g id="node16" class="node">
<title>16</title>
<polygon fill="#e552ff" stroke="#e552ff" points="627,-189 585,-189 585,-193 573,-193 573,-153 627,-153 627,-189"/>
<polyline fill="none" stroke="#e552ff" points="573,-189 585,-189"/>
<text text-anchor="middle" x="600" y="-167.3" font-family="DejaVu Sans Mono" font-size="14.00">int</text>
</g>
<!-- 15&#45;&gt;16 -->
<g id="edge11" class="edge">
<title>15&#45;&gt;16</title>
<path fill="none" stroke="black" stroke-dasharray="5,2" d="M603.87,-235.01C603.24,-224.83 602.45,-211.98 601.75,-200.54"/>
<polygon fill="black" stroke="black" points="605.26,-200.58 601.15,-190.82 598.27,-201.01 605.26,-200.58"/>
<text text-anchor="middle" x="623" y="-208.8" font-family="DejaVu Sans Mono" font-size="14.00">calls</text>
</g>
<!-- 18 -->
<g id="node17" class="node">
<title>18</title>
<polygon fill="#e552ff" stroke="#e552ff" points="706,-189 660,-189 660,-193 648,-193 648,-153 706,-153 706,-189"/>
<polyline fill="none" stroke="#e552ff" points="648,-189 660,-189"/>
<text text-anchor="middle" x="677" y="-167.3" font-family="DejaVu Sans Mono" font-size="14.00">print</text>
</g>
<!-- 15&#45;&gt;18 -->
<g id="edge12" class="edge">
<title>15&#45;&gt;18</title>
<path fill="none" stroke="black" stroke-dasharray="5,2" d="M631.8,-235.08C637.49,-230.51 643.22,-225.38 648,-220 653.47,-213.84 658.5,-206.5 662.77,-199.44"/>
<polygon fill="black" stroke="black" points="665.8,-201.2 667.71,-190.78 659.72,-197.73 665.8,-201.2"/>
<text text-anchor="middle" x="680" y="-208.8" font-family="DejaVu Sans Mono" font-size="14.00">calls</text>
</g>
<!-- 17 -->
<g id="node18" class="node">
<title>17</title>
<polygon fill="#e552ff" stroke="#e552ff" points="627,-136 581,-136 581,-140 569,-140 569,-100 627,-100 627,-136"/>
<polyline fill="none" stroke="#e552ff" points="569,-136 581,-136"/>
<text text-anchor="middle" x="598" y="-114.3" font-family="DejaVu Sans Mono" font-size="14.00">input</text>
</g>
<!-- 16&#45;&gt;17 -->
<g id="edge13" class="edge">
<title>16&#45;&gt;17</title>
<path fill="none" stroke="black" d="M599.32,-152.73C599.26,-151.07 599.19,-149.36 599.12,-147.62"/>
<polygon fill="black" stroke="black" points="602.62,-147.62 598.74,-137.76 595.63,-147.89 602.62,-147.62"/>
</g>
<!-- 19 -->
<g id="node19" class="node">
<title>19</title>
<polygon fill="#e552ff" stroke="#e552ff" points="711,-136 657,-136 657,-140 645,-140 645,-100 711,-100 711,-136"/>
<polyline fill="none" stroke="#e552ff" points="645,-136 657,-136"/>
<text text-anchor="middle" x="678" y="-114.3" font-family="DejaVu Sans Mono" font-size="14.00">factor</text>
</g>
<!-- 18&#45;&gt;19 -->
<g id="edge14" class="edge">
<title>18&#45;&gt;19</title>
<path fill="none" stroke="black" d="M677.34,-152.73C677.37,-151.07 677.4,-149.36 677.44,-147.62"/>
<polygon fill="black" stroke="black" points="680.94,-147.83 677.63,-137.76 673.94,-147.69 680.94,-147.83"/>
</g>
<!-- 3 -->
<g id="node20" class="node">
<title>3</title>
<polygon fill="#fffb81" stroke="black" points="1348.5,-1025 605.5,-1025 605.5,-532 1348.5,-532 1348.5,-1025"/>
<text text-anchor="start" x="613.5" y="-1009.8" font-family="DejaVu Sans Mono" font-size="14.00">&quot;&quot;&quot;</text>
<text text-anchor="start" x="613.5" y="-994.8" font-family="DejaVu Sans Mono" font-size="14.00"> &#160;&#160;&#160;Purpose: &#160;&#160;&#160;&#160;&#160;&#160;&#160;Converts a decimal number to a binary representation</text>
<text text-anchor="start" x="613.5" y="-979.8" font-family="DejaVu Sans Mono" font-size="14.00"> &#160;&#160;&#160;Parameters: &#160;&#160;&#160;&#160;A decimal number, as an integer</text>
<text text-anchor="start" x="613.5" y="-964.8" font-family="DejaVu Sans Mono" font-size="14.00"> &#160;&#160;&#160;User Input: &#160;&#160;&#160;&#160;No</text>
<text text-anchor="start" x="613.5" y="-949.8" font-family="DejaVu Sans Mono" font-size="14.00"> &#160;&#160;&#160;Prints: &#160;&#160;&#160;&#160;&#160;&#160;&#160;&#160;Nothing</text>
<text text-anchor="start" x="613.5" y="-934.8" font-family="DejaVu Sans Mono" font-size="14.00"> &#160;&#160;&#160;Returns: &#160;&#160;&#160;&#160;&#160;&#160;&#160;Result as a string of 1s and 0s</text>
<text text-anchor="start" x="613.5" y="-919.8" font-family="DejaVu Sans Mono" font-size="14.00"> &#160;&#160;&#160;Modifies: &#160;&#160;&#160;&#160;&#160;&#160;Nothing</text>
<text text-anchor="start" x="613.5" y="-904.8" font-family="DejaVu Sans Mono" font-size="14.00"> &#160;&#160;&#160;Calls: &#160;&#160;&#160;&#160;&#160;&#160;&#160;&#160;&#160;Basic python only</text>
<text text-anchor="start" x="613.5" y="-889.8" font-family="DejaVu Sans Mono" font-size="14.00"> &#160;&#160;&#160;Tests: &#160;&#160;&#160;&#160;&#160;&#160;&#160;&#160;&#160;./unit_tests/*</text>
<text text-anchor="start" x="613.5" y="-874.8" font-family="DejaVu Sans Mono" font-size="14.00"> &#160;&#160;&#160;Status: &#160;&#160;&#160;&#160;&#160;&#160;&#160;&#160;Done!</text>
<text text-anchor="start" x="613.5" y="-843.8" font-family="DejaVu Sans Mono" font-size="14.00"> &#160;&#160;&#160;Usage illustrated via some simple doctests:</text>
<text text-anchor="start" x="613.5" y="-828.8" font-family="DejaVu Sans Mono" font-size="14.00"> &#160;&#160;&#160;&gt;&gt;&gt; factor(8)</text>
<text text-anchor="start" x="613.5" y="-813.8" font-family="DejaVu Sans Mono" font-size="14.00"> &#160;&#160;&#160;[1, 2, 4, 8]</text>
<text text-anchor="start" x="613.5" y="-782.8" font-family="DejaVu Sans Mono" font-size="14.00"> &#160;&#160;&#160;&gt;&gt;&gt; factor(10)</text>
<text text-anchor="start" x="613.5" y="-767.8" font-family="DejaVu Sans Mono" font-size="14.00"> &#160;&#160;&#160;[1, 2, 5, 10]</text>
<text text-anchor="start" x="613.5" y="-736.8" font-family="DejaVu Sans Mono" font-size="14.00"> &#160;&#160;&#160;&gt;&gt;&gt; import random</text>
<text text-anchor="start" x="613.5" y="-721.8" font-family="DejaVu Sans Mono" font-size="14.00"> &#160;&#160;&#160;&gt;&gt;&gt; for _ in range(5):</text>
<text text-anchor="start" x="613.5" y="-706.8" font-family="DejaVu Sans Mono" font-size="14.00"> &#160;&#160;&#160;... &#160;&#160;&#160;&#160;num = random.randint(0, 200)</text>
<text text-anchor="start" x="613.5" y="-691.8" font-family="DejaVu Sans Mono" font-size="14.00"> &#160;&#160;&#160;... &#160;&#160;&#160;&#160;assert factor(num) == [i for i in range(1, num//2 + 1) if not num%i] + [num]</text>
<text text-anchor="start" x="613.5" y="-660.8" font-family="DejaVu Sans Mono" font-size="14.00"> &#160;&#160;&#160;&gt;&gt;&gt; for _ in range(2):</text>
<text text-anchor="start" x="613.5" y="-645.8" font-family="DejaVu Sans Mono" font-size="14.00"> &#160;&#160;&#160;... &#160;&#160;&#160;&#160;num = random.randint(0, 200)</text>
<text text-anchor="start" x="613.5" y="-630.8" font-family="DejaVu Sans Mono" font-size="14.00"> &#160;&#160;&#160;... &#160;&#160;&#160;&#160;factor(num) == [i for i in range(1, num//2 + 1) if not num%i] + [num]</text>
<text text-anchor="start" x="613.5" y="-615.8" font-family="DejaVu Sans Mono" font-size="14.00"> &#160;&#160;&#160;True</text>
<text text-anchor="start" x="613.5" y="-600.8" font-family="DejaVu Sans Mono" font-size="14.00"> &#160;&#160;&#160;True</text>
<text text-anchor="start" x="613.5" y="-569.8" font-family="DejaVu Sans Mono" font-size="14.00"> &#160;&#160;&#160;&gt;&gt;&gt; print(&quot;Unlike other frameworks, doctest does stdout easily&quot;)</text>
<text text-anchor="start" x="613.5" y="-554.8" font-family="DejaVu Sans Mono" font-size="14.00"> &#160;&#160;&#160;Unlike other frameworks, doctest does stdout easily</text>
<text text-anchor="middle" x="977" y="-539.8" font-family="DejaVu Sans Mono" font-size="14.00"> &#160;&#160;&#160;&quot;&quot;&quot;</text>
</g>
<!-- 4 -->
<g id="node21" class="node">
<title>4</title>
<polygon fill="#98fb98" stroke="black" points="1503.95,-515 665.69,-515 450.05,-479 1288.31,-479 1503.95,-515"/>
<text text-anchor="middle" x="977" y="-493.3" font-family="DejaVu Sans Mono" font-size="14.00">return [i for i in range(1, num // 2 + 1) if not num % i] + [num]</text>
</g>
<!-- 3&#45;&gt;4 -->
<g id="edge19" class="edge">
<title>3&#45;&gt;4</title>
<path fill="none" stroke="black" d="M977,-531.71C977,-529.95 977,-528.24 977,-526.59"/>
<polygon fill="black" stroke="black" points="980.5,-526.65 977,-516.65 973.5,-526.65 980.5,-526.65"/>
</g>
<!-- input -->
<g id="node22" class="node">
<title>input</title>
<polygon fill="#afeeee" stroke="black" points="1893.04,-515 1805.48,-515 1782.96,-479 1870.52,-479 1893.04,-515"/>
<text text-anchor="middle" x="1838" y="-493.3" font-family="DejaVu Sans Mono" font-size="14.00">input</text>
</g>
<!-- call -->
<g id="node27" class="node">
<title>call</title>
<polygon fill="#e552ff" stroke="black" points="1865,-439 1823,-439 1823,-443 1811,-443 1811,-403 1865,-403 1865,-439"/>
<polyline fill="none" stroke="black" points="1811,-439 1823,-439"/>
<text text-anchor="middle" x="1838" y="-417.3" font-family="DejaVu Sans Mono" font-size="14.00">call</text>
</g>
<!-- input&#45;&gt;call -->
<!-- default -->
<g id="node23" class="node">
<title>default</title>
<polygon fill="#fffb81" stroke="black" points="1739,-439 1665,-439 1665,-403 1739,-403 1739,-439"/>
<text text-anchor="middle" x="1702" y="-417.3" font-family="DejaVu Sans Mono" font-size="14.00">default</text>
</g>
<!-- if -->
<g id="node24" class="node">
<title>if</title>
<polygon fill="#ff6752" stroke="black" points="1838,-796.5 1807.83,-778.5 1838,-760.5 1868.17,-778.5 1838,-796.5"/>
<text text-anchor="middle" x="1838" y="-774.8" font-family="DejaVu Sans Mono" font-size="14.00">if</text>
</g>
<!-- if&#45;&gt;input -->
<!-- for -->
<g id="node25" class="node">
<title>for</title>
<polygon fill="#ffbe52" stroke="black" points="1788.54,-778.5 1773.27,-796.5 1742.73,-796.5 1727.46,-778.5 1742.73,-760.5 1773.27,-760.5 1788.54,-778.5"/>
<text text-anchor="middle" x="1758" y="-774.8" font-family="DejaVu Sans Mono" font-size="14.00">for</text>
</g>
<!-- return -->
<g id="node28" class="node">
<title>return</title>
<polygon fill="#98fb98" stroke="black" points="1764.79,-515 1664.91,-515 1639.21,-479 1739.09,-479 1764.79,-515"/>
<text text-anchor="middle" x="1702" y="-493.3" font-family="DejaVu Sans Mono" font-size="14.00">return</text>
</g>
<!-- for&#45;&gt;return -->
<!-- while -->
<g id="node26" class="node">
<title>while</title>
<polygon fill="#ffbe52" stroke="black" points="1709.56,-778.5 1687.78,-796.5 1644.22,-796.5 1622.44,-778.5 1644.22,-760.5 1687.78,-760.5 1709.56,-778.5"/>
<text text-anchor="middle" x="1666" y="-774.8" font-family="DejaVu Sans Mono" font-size="14.00">while</text>
</g>
<!-- return&#45;&gt;default -->
<!-- try -->
<g id="node29" class="node">
<title>try</title>
<polygon fill="orange" stroke="black" points="1567,-796.5 1529.13,-778.5 1567,-760.5 1604.87,-778.5 1567,-796.5"/>
<polyline fill="none" stroke="black" points="1539.97,-783.65 1539.97,-773.35"/>
<polyline fill="none" stroke="black" points="1556.16,-765.65 1577.84,-765.65"/>
<polyline fill="none" stroke="black" points="1594.03,-773.35 1594.03,-783.65"/>
<polyline fill="none" stroke="black" points="1577.84,-791.35 1556.16,-791.35"/>
<text text-anchor="middle" x="1567" y="-774.8" font-family="DejaVu Sans Mono" font-size="14.00">try</text>
</g>
<!-- raise -->
<g id="node30" class="node">
<title>raise</title>
<polygon fill="#98fb98" stroke="black" points="1621.69,-502.56 1575,-515 1528.31,-502.56 1528.35,-482.44 1621.65,-482.44 1621.69,-502.56"/>
<text text-anchor="middle" x="1575" y="-493.3" font-family="DejaVu Sans Mono" font-size="14.00">raise</text>
</g>
<!-- try&#45;&gt;raise -->
</g>
</svg>
