<?xml version="1.0" encoding="UTF-8" standalone="no"?>
<!DOCTYPE svg PUBLIC "-//W3C//DTD SVG 1.1//EN"
 "http://www.w3.org/Graphics/SVG/1.1/DTD/svg11.dtd">
<!-- Generated by graphviz version 7.1.0 (0)
 -->
<!-- Title: cluster0factor.py Pages: 1 -->
<svg width="1629pt" height="791pt"
 viewBox="0.00 0.00 1629.33 791.00" xmlns="http://www.w3.org/2000/svg" xmlns:xlink="http://www.w3.org/1999/xlink">
<g id="graph0" class="graph" transform="scale(1 1) rotate(0) translate(4 787)">
<title>cluster0factor.py</title>
<polygon fill="white" stroke="none" points="-4,4 -4,-787 1625.33,-787 1625.33,4 -4,4"/>
<text text-anchor="middle" x="810.66" y="-7.8" font-family="DejaVu Sans Mono" font-size="14.00">factor.py</text>
<g id="clust1" class="cluster">
<title>cluster_8</title>
<polygon fill="purple" stroke="purple" points="134.33,-31 134.33,-83 290.33,-83 290.33,-31 134.33,-31"/>
</g>
<g id="clust2" class="cluster">
<title>cluster0factor</title>
<polygon fill="none" stroke="black" points="432.33,-190 432.33,-775 1224.33,-775 1224.33,-190 432.33,-190"/>
<text text-anchor="middle" x="828.33" y="-759.8" font-family="DejaVu Sans Mono" font-size="14.00">factor</text>
</g>
<g id="clust3" class="cluster">
<title>cluster_KEY</title>
<polygon fill="none" stroke="black" points="1232.33,-114 1232.33,-546.5 1613.33,-546.5 1613.33,-114 1232.33,-114"/>
<text text-anchor="middle" x="1422.83" y="-531.3" font-family="DejaVu Sans Mono" font-size="14.00">KEY</text>
</g>
<!-- 1 -->
<g id="node1" class="node">
<title>1</title>
<polygon fill="#fffb81" stroke="black" points="369.33,-516.5 55.33,-516.5 55.33,-478.5 369.33,-478.5 369.33,-516.5"/>
<text text-anchor="start" x="63.33" y="-501.3" font-family="DejaVu Sans Mono" font-size="14.00">import sys</text>
<text text-anchor="middle" x="212.33" y="-486.3" font-family="DejaVu Sans Mono" font-size="14.00">def factor(num: int) &#45;&gt;list[int]:...</text>
</g>
<!-- 7 -->
<g id="node2" class="node">
<title>7</title>
<polygon fill="#ff6752" stroke="black" points="212.33,-234 0.17,-216 212.33,-198 424.48,-216 212.33,-234"/>
<text text-anchor="middle" x="212.33" y="-212.3" font-family="DejaVu Sans Mono" font-size="14.00">if __name__ == &#39;__main__&#39;:</text>
</g>
<!-- 1&#45;&gt;7 -->
<g id="edge3" class="edge">
<title>1&#45;&gt;7</title>
<path fill="none" stroke="black" d="M212.33,-478.16C212.33,-430.64 212.33,-303.22 212.33,-245.78"/>
<polygon fill="black" stroke="black" points="215.83,-245.84 212.33,-235.84 208.83,-245.84 215.83,-245.84"/>
</g>
<!-- 8 -->
<g id="node3" class="node">
<title>8</title>
<polygon fill="#fffb81" stroke="black" points="290.83,-159 133.83,-159 133.83,-121 290.83,-121 290.83,-159"/>
<text text-anchor="start" x="141.83" y="-143.8" font-family="DejaVu Sans Mono" font-size="14.00">import doctest</text>
<text text-anchor="middle" x="212.33" y="-128.8" font-family="DejaVu Sans Mono" font-size="14.00">doctest.testmod()</text>
</g>
<!-- 7&#45;&gt;8 -->
<g id="edge2" class="edge">
<title>7&#45;&gt;8</title>
<path fill="none" stroke="green" d="M212.33,-197.84C212.33,-189.82 212.33,-180.04 212.33,-170.87"/>
<polygon fill="green" stroke="green" points="215.83,-170.88 212.33,-160.88 208.83,-170.88 215.83,-170.88"/>
<text text-anchor="middle" x="303.33" y="-170.8" font-family="DejaVu Sans Mono" font-size="14.00">__name__ == &#39;__main__&#39;</text>
</g>
<!-- 10 -->
<g id="node4" class="node">
<title>10</title>
<polygon fill="#e552ff" stroke="#e552ff" points="282.33,-75 154.33,-75 154.33,-79 142.33,-79 142.33,-39 282.33,-39 282.33,-75"/>
<polyline fill="none" stroke="#e552ff" points="142.33,-75 154.33,-75"/>
<text text-anchor="middle" x="212.33" y="-53.3" font-family="DejaVu Sans Mono" font-size="14.00">doctest.testmod</text>
</g>
<!-- 8&#45;&gt;10 -->
<g id="edge1" class="edge">
<title>8&#45;&gt;10</title>
<path fill="none" stroke="black" stroke-dasharray="5,2" d="M212.33,-120.62C212.33,-110.68 212.33,-98.17 212.33,-86.96"/>
<polygon fill="black" stroke="black" points="215.83,-86.99 212.33,-76.99 208.83,-86.99 215.83,-86.99"/>
<text text-anchor="middle" x="233.33" y="-94.8" font-family="DejaVu Sans Mono" font-size="14.00">calls</text>
</g>
<!-- 3 -->
<g id="node5" class="node">
<title>3</title>
<polygon fill="#fffb81" stroke="black" points="1216.33,-744 440.33,-744 440.33,-251 1216.33,-251 1216.33,-744"/>
<text text-anchor="start" x="448.33" y="-728.8" font-family="DejaVu Sans Mono" font-size="14.00">&quot;&quot;&quot;</text>
<text text-anchor="start" x="448.33" y="-713.8" font-family="DejaVu Sans Mono" font-size="14.00"> &#160;&#160;&#160;Purpose: &#160;&#160;&#160;&#160;&#160;&#160;&#160;Factors positive integers</text>
<text text-anchor="start" x="448.33" y="-698.8" font-family="DejaVu Sans Mono" font-size="14.00"> &#160;&#160;&#160;Parameters: &#160;&#160;&#160;&#160;A decimal number, as an integer</text>
<text text-anchor="start" x="448.33" y="-683.8" font-family="DejaVu Sans Mono" font-size="14.00"> &#160;&#160;&#160;User Input: &#160;&#160;&#160;&#160;No</text>
<text text-anchor="start" x="448.33" y="-668.8" font-family="DejaVu Sans Mono" font-size="14.00"> &#160;&#160;&#160;Prints: &#160;&#160;&#160;&#160;&#160;&#160;&#160;&#160;Nothing</text>
<text text-anchor="start" x="448.33" y="-653.8" font-family="DejaVu Sans Mono" font-size="14.00"> &#160;&#160;&#160;Returns: &#160;&#160;&#160;&#160;&#160;&#160;&#160;Result as a list of int</text>
<text text-anchor="start" x="448.33" y="-638.8" font-family="DejaVu Sans Mono" font-size="14.00"> &#160;&#160;&#160;Modifies: &#160;&#160;&#160;&#160;&#160;&#160;Nothing</text>
<text text-anchor="start" x="448.33" y="-623.8" font-family="DejaVu Sans Mono" font-size="14.00"> &#160;&#160;&#160;Calls: &#160;&#160;&#160;&#160;&#160;&#160;&#160;&#160;&#160;Basic python only</text>
<text text-anchor="start" x="448.33" y="-608.8" font-family="DejaVu Sans Mono" font-size="14.00"> &#160;&#160;&#160;Tests: &#160;&#160;&#160;&#160;&#160;&#160;&#160;&#160;&#160;./unit_tests/*</text>
<text text-anchor="start" x="448.33" y="-593.8" font-family="DejaVu Sans Mono" font-size="14.00"> &#160;&#160;&#160;Status: &#160;&#160;&#160;&#160;&#160;&#160;&#160;&#160;Done!</text>
<text text-anchor="start" x="448.33" y="-562.8" font-family="DejaVu Sans Mono" font-size="14.00"> &#160;&#160;&#160;Usage illustrated via some simple doctests:</text>
<text text-anchor="start" x="448.33" y="-547.8" font-family="DejaVu Sans Mono" font-size="14.00"> &#160;&#160;&#160;&gt;&gt;&gt; factor(8)</text>
<text text-anchor="start" x="448.33" y="-532.8" font-family="DejaVu Sans Mono" font-size="14.00"> &#160;&#160;&#160;[1, 2, 4, 8]</text>
<text text-anchor="start" x="448.33" y="-501.8" font-family="DejaVu Sans Mono" font-size="14.00"> &#160;&#160;&#160;&gt;&gt;&gt; factor(10)</text>
<text text-anchor="start" x="448.33" y="-486.8" font-family="DejaVu Sans Mono" font-size="14.00"> &#160;&#160;&#160;[1, 2, 5, 10]</text>
<text text-anchor="start" x="448.33" y="-455.8" font-family="DejaVu Sans Mono" font-size="14.00"> &#160;&#160;&#160;&gt;&gt;&gt; import random</text>
<text text-anchor="start" x="448.33" y="-440.8" font-family="DejaVu Sans Mono" font-size="14.00"> &#160;&#160;&#160;&gt;&gt;&gt; for _ in range(5):</text>
<text text-anchor="start" x="448.33" y="-425.8" font-family="DejaVu Sans Mono" font-size="14.00"> &#160;&#160;&#160;... &#160;&#160;&#160;&#160;num = random.randint(0, 200)</text>
<text text-anchor="start" x="448.33" y="-410.8" font-family="DejaVu Sans Mono" font-size="14.00"> &#160;&#160;&#160;... &#160;&#160;&#160;&#160;assert factor(num) == [i for i in range(1, num // 2 + 1) if not num % i] + [num]</text>
<text text-anchor="start" x="448.33" y="-379.8" font-family="DejaVu Sans Mono" font-size="14.00"> &#160;&#160;&#160;&gt;&gt;&gt; for _ in range(2):</text>
<text text-anchor="start" x="448.33" y="-364.8" font-family="DejaVu Sans Mono" font-size="14.00"> &#160;&#160;&#160;... &#160;&#160;&#160;&#160;num = random.randint(0, 200)</text>
<text text-anchor="start" x="448.33" y="-349.8" font-family="DejaVu Sans Mono" font-size="14.00"> &#160;&#160;&#160;... &#160;&#160;&#160;&#160;factor(num) == [i for i in range(1, num // 2 + 1) if not num % i] + [num]</text>
<text text-anchor="start" x="448.33" y="-334.8" font-family="DejaVu Sans Mono" font-size="14.00"> &#160;&#160;&#160;True</text>
<text text-anchor="start" x="448.33" y="-319.8" font-family="DejaVu Sans Mono" font-size="14.00"> &#160;&#160;&#160;True</text>
<text text-anchor="start" x="448.33" y="-288.8" font-family="DejaVu Sans Mono" font-size="14.00"> &#160;&#160;&#160;&gt;&gt;&gt; print(&quot;Unlike other frameworks, doctest does stdout easily&quot;)</text>
<text text-anchor="start" x="448.33" y="-273.8" font-family="DejaVu Sans Mono" font-size="14.00"> &#160;&#160;&#160;Unlike other frameworks, doctest does stdout easily</text>
<text text-anchor="middle" x="828.33" y="-258.8" font-family="DejaVu Sans Mono" font-size="14.00"> &#160;&#160;&#160;&quot;&quot;&quot;</text>
</g>
<!-- 4 -->
<g id="node6" class="node">
<title>4</title>
<polygon fill="#98fb98" stroke="black" points="1190.56,-234 614.33,-234 466.09,-198 1042.32,-198 1190.56,-234"/>
<text text-anchor="middle" x="828.33" y="-212.3" font-family="DejaVu Sans Mono" font-size="14.00">return &#39;delete this and write your own code&#39;</text>
</g>
<!-- 3&#45;&gt;4 -->
<g id="edge4" class="edge">
<title>3&#45;&gt;4</title>
<path fill="none" stroke="black" d="M828.33,-250.71C828.33,-248.95 828.33,-247.24 828.33,-245.59"/>
<polygon fill="black" stroke="black" points="831.83,-245.65 828.33,-235.65 824.83,-245.65 831.83,-245.65"/>
</g>
<!-- input -->
<g id="node7" class="node">
<title>input</title>
<polygon fill="#afeeee" stroke="black" points="1605.37,-234 1517.81,-234 1495.28,-198 1582.84,-198 1605.37,-234"/>
<text text-anchor="middle" x="1550.33" y="-212.3" font-family="DejaVu Sans Mono" font-size="14.00">input</text>
</g>
<!-- call -->
<g id="node12" class="node">
<title>call</title>
<polygon fill="#e552ff" stroke="black" points="1577.33,-158 1535.33,-158 1535.33,-162 1523.33,-162 1523.33,-122 1577.33,-122 1577.33,-158"/>
<polyline fill="none" stroke="black" points="1523.33,-158 1535.33,-158"/>
<text text-anchor="middle" x="1550.33" y="-136.3" font-family="DejaVu Sans Mono" font-size="14.00">call</text>
</g>
<!-- input&#45;&gt;call -->
<!-- default -->
<g id="node8" class="node">
<title>default</title>
<polygon fill="#fffb81" stroke="black" points="1451.33,-158 1377.33,-158 1377.33,-122 1451.33,-122 1451.33,-158"/>
<text text-anchor="middle" x="1414.33" y="-136.3" font-family="DejaVu Sans Mono" font-size="14.00">default</text>
</g>
<!-- if -->
<g id="node9" class="node">
<title>if</title>
<polygon fill="#ff6752" stroke="black" points="1550.33,-515.5 1520.16,-497.5 1550.33,-479.5 1580.49,-497.5 1550.33,-515.5"/>
<text text-anchor="middle" x="1550.33" y="-493.8" font-family="DejaVu Sans Mono" font-size="14.00">if</text>
</g>
<!-- if&#45;&gt;input -->
<!-- for -->
<g id="node10" class="node">
<title>for</title>
<polygon fill="#ffbe52" stroke="black" points="1500.87,-497.5 1485.6,-515.5 1455.05,-515.5 1439.78,-497.5 1455.05,-479.5 1485.6,-479.5 1500.87,-497.5"/>
<text text-anchor="middle" x="1470.33" y="-493.8" font-family="DejaVu Sans Mono" font-size="14.00">for</text>
</g>
<!-- return -->
<g id="node13" class="node">
<title>return</title>
<polygon fill="#98fb98" stroke="black" points="1477.11,-234 1377.23,-234 1351.54,-198 1451.42,-198 1477.11,-234"/>
<text text-anchor="middle" x="1414.33" y="-212.3" font-family="DejaVu Sans Mono" font-size="14.00">return</text>
</g>
<!-- for&#45;&gt;return -->
<!-- while -->
<g id="node11" class="node">
<title>while</title>
<polygon fill="#ffbe52" stroke="black" points="1421.88,-497.5 1400.1,-515.5 1356.55,-515.5 1334.77,-497.5 1356.55,-479.5 1400.1,-479.5 1421.88,-497.5"/>
<text text-anchor="middle" x="1378.33" y="-493.8" font-family="DejaVu Sans Mono" font-size="14.00">while</text>
</g>
<!-- return&#45;&gt;default -->
<!-- try -->
<g id="node14" class="node">
<title>try</title>
<polygon fill="orange" stroke="black" points="1279.33,-515.5 1241.45,-497.5 1279.33,-479.5 1317.2,-497.5 1279.33,-515.5"/>
<polyline fill="none" stroke="black" points="1252.29,-502.65 1252.29,-492.35"/>
<polyline fill="none" stroke="black" points="1268.49,-484.65 1290.16,-484.65"/>
<polyline fill="none" stroke="black" points="1306.36,-492.35 1306.36,-502.65"/>
<polyline fill="none" stroke="black" points="1290.16,-510.35 1268.49,-510.35"/>
<text text-anchor="middle" x="1279.33" y="-493.8" font-family="DejaVu Sans Mono" font-size="14.00">try</text>
</g>
<!-- raise -->
<g id="node15" class="node">
<title>raise</title>
<polygon fill="#98fb98" stroke="black" points="1334.02,-221.56 1287.33,-234 1240.63,-221.56 1240.68,-201.44 1333.97,-201.44 1334.02,-221.56"/>
<text text-anchor="middle" x="1287.33" y="-212.3" font-family="DejaVu Sans Mono" font-size="14.00">raise</text>
</g>
<!-- try&#45;&gt;raise -->
</g>
</svg>
