<?xml version="1.0" encoding="UTF-8" standalone="no"?>
<!DOCTYPE svg PUBLIC "-//W3C//DTD SVG 1.1//EN"
 "http://www.w3.org/Graphics/SVG/1.1/DTD/svg11.dtd">
<!-- Generated by graphviz version 8.1.0 (20230707.0739)
 -->
<!-- Title: cluster0factor.py Pages: 1 -->
<svg width="1691pt" height="863pt"
 viewBox="0.00 0.00 1690.67 863.00" xmlns="http://www.w3.org/2000/svg" xmlns:xlink="http://www.w3.org/1999/xlink">
<g id="graph0" class="graph" transform="scale(1 1) rotate(0) translate(4 859)">
<title>cluster0factor.py</title>
<polygon fill="white" stroke="none" points="-4,4 -4,-859 1686.67,-859 1686.67,4 -4,4"/>
<text text-anchor="middle" x="841.33" y="-7.95" font-family="DejaVu Sans Mono" font-size="14.00">factor.py</text>
<g id="clust1" class="cluster">
<title>cluster_8</title>
<polygon fill="purple" stroke="purple" points="150.67,-33.25 150.67,-85.25 306.67,-85.25 306.67,-33.25 150.67,-33.25"/>
</g>
<g id="clust2" class="cluster">
<title>cluster0factor</title>
<polygon fill="none" stroke="black" points="466.67,-199 466.67,-847 1262.67,-847 1262.67,-199 466.67,-199"/>
<text text-anchor="middle" x="864.67" y="-829.7" font-family="DejaVu Sans Mono" font-size="14.00">factor</text>
</g>
<g id="clust3" class="cluster">
<title>cluster_KEY</title>
<polygon fill="none" stroke="black" points="1270.67,-118.5 1270.67,-588.12 1674.67,-588.12 1674.67,-118.5 1270.67,-118.5"/>
<text text-anchor="middle" x="1472.67" y="-570.83" font-family="DejaVu Sans Mono" font-size="14.00">KEY</text>
</g>
<!-- 1 -->
<g id="node1" class="node">
<title>1</title>
<polygon fill="#fffb81" stroke="black" points="385.17,-558.12 72.17,-558.12 72.17,-515.62 385.17,-515.62 385.17,-558.12"/>
<text text-anchor="start" x="80.17" y="-540.83" font-family="DejaVu Sans Mono" font-size="14.00">import sys</text>
<text text-anchor="middle" x="228.67" y="-523.58" font-family="DejaVu Sans Mono" font-size="14.00">def factor(num: int) &#45;&gt;list[int]:...</text>
</g>
<!-- 7 -->
<g id="node2" class="node">
<title>7</title>
<polygon fill="#ff6752" stroke="black" points="228.67,-243 0,-225 228.67,-207 457.33,-225 228.67,-243"/>
<text text-anchor="middle" x="228.67" y="-220.32" font-family="DejaVu Sans Mono" font-size="14.00">if __name__ == &#39;__main__&#39;:</text>
</g>
<!-- 1&#45;&gt;7 -->
<g id="edge3" class="edge">
<title>1&#45;&gt;7</title>
<path fill="none" stroke="black" d="M228.67,-515.54C228.67,-461.78 228.67,-315.79 228.67,-254.11"/>
<polygon fill="black" stroke="black" points="232.17,-254.28 228.67,-244.28 225.17,-254.28 232.17,-254.28"/>
</g>
<!-- 8 -->
<g id="node3" class="node">
<title>8</title>
<polygon fill="#fffb81" stroke="black" points="306.79,-165.75 150.54,-165.75 150.54,-123.25 306.79,-123.25 306.79,-165.75"/>
<text text-anchor="start" x="158.54" y="-148.45" font-family="DejaVu Sans Mono" font-size="14.00">import doctest</text>
<text text-anchor="middle" x="228.67" y="-131.2" font-family="DejaVu Sans Mono" font-size="14.00">doctest.testmod()</text>
</g>
<!-- 7&#45;&gt;8 -->
<g id="edge2" class="edge">
<title>7&#45;&gt;8</title>
<path fill="none" stroke="green" d="M228.67,-206.58C228.67,-197.91 228.67,-187.17 228.67,-177.12"/>
<polygon fill="green" stroke="green" points="232.17,-177.21 228.67,-167.21 225.17,-177.21 232.17,-177.21"/>
<text text-anchor="middle" x="319.42" y="-177.7" font-family="DejaVu Sans Mono" font-size="14.00">__name__ == &#39;__main__&#39;</text>
</g>
<!-- 10 -->
<g id="node4" class="node">
<title>10</title>
<polygon fill="#e552ff" stroke="#e552ff" points="298.54,-77.25 170.79,-77.25 170.79,-81.25 158.79,-81.25 158.79,-41.25 298.54,-41.25 298.54,-77.25"/>
<polyline fill="none" stroke="#e552ff" points="158.79,-77.25 170.79,-77.25"/>
<text text-anchor="middle" x="228.67" y="-54.58" font-family="DejaVu Sans Mono" font-size="14.00">doctest.testmod</text>
</g>
<!-- 8&#45;&gt;10 -->
<g id="edge1" class="edge">
<title>8&#45;&gt;10</title>
<path fill="none" stroke="black" stroke-dasharray="5,2" d="M228.67,-122.92C228.67,-112.45 228.67,-99.56 228.67,-88.21"/>
<polygon fill="black" stroke="black" points="232.17,-88.5 228.67,-78.5 225.17,-88.5 232.17,-88.5"/>
<text text-anchor="middle" x="249.29" y="-97.2" font-family="DejaVu Sans Mono" font-size="14.00">calls</text>
</g>
<!-- 3 -->
<g id="node5" class="node">
<title>3</title>
<polygon fill="#fffb81" stroke="black" points="1252.17,-813.75 477.17,-813.75 477.17,-260 1252.17,-260 1252.17,-813.75"/>
<text text-anchor="start" x="485.17" y="-796.45" font-family="DejaVu Sans Mono" font-size="14.00">&quot;&quot;&quot;</text>
<text text-anchor="start" x="485.17" y="-779.2" font-family="DejaVu Sans Mono" font-size="14.00"> &#160;&#160;&#160;Purpose: &#160;&#160;&#160;&#160;&#160;&#160;&#160;Factors positive integers</text>
<text text-anchor="start" x="485.17" y="-761.95" font-family="DejaVu Sans Mono" font-size="14.00"> &#160;&#160;&#160;Parameters: &#160;&#160;&#160;&#160;A decimal number, as an integer</text>
<text text-anchor="start" x="485.17" y="-744.7" font-family="DejaVu Sans Mono" font-size="14.00"> &#160;&#160;&#160;User Input: &#160;&#160;&#160;&#160;No</text>
<text text-anchor="start" x="485.17" y="-727.45" font-family="DejaVu Sans Mono" font-size="14.00"> &#160;&#160;&#160;Prints: &#160;&#160;&#160;&#160;&#160;&#160;&#160;&#160;Nothing</text>
<text text-anchor="start" x="485.17" y="-710.2" font-family="DejaVu Sans Mono" font-size="14.00"> &#160;&#160;&#160;Returns: &#160;&#160;&#160;&#160;&#160;&#160;&#160;Result as a list of int</text>
<text text-anchor="start" x="485.17" y="-692.95" font-family="DejaVu Sans Mono" font-size="14.00"> &#160;&#160;&#160;Modifies: &#160;&#160;&#160;&#160;&#160;&#160;Nothing</text>
<text text-anchor="start" x="485.17" y="-675.7" font-family="DejaVu Sans Mono" font-size="14.00"> &#160;&#160;&#160;Calls: &#160;&#160;&#160;&#160;&#160;&#160;&#160;&#160;&#160;Basic python only</text>
<text text-anchor="start" x="485.17" y="-658.45" font-family="DejaVu Sans Mono" font-size="14.00"> &#160;&#160;&#160;Tests: &#160;&#160;&#160;&#160;&#160;&#160;&#160;&#160;&#160;./unit_tests/*</text>
<text text-anchor="start" x="485.17" y="-641.2" font-family="DejaVu Sans Mono" font-size="14.00"> &#160;&#160;&#160;Status: &#160;&#160;&#160;&#160;&#160;&#160;&#160;&#160;Done!</text>
<text text-anchor="start" x="485.17" y="-607.95" font-family="DejaVu Sans Mono" font-size="14.00"> &#160;&#160;&#160;Usage illustrated via some simple doctests:</text>
<text text-anchor="start" x="485.17" y="-590.7" font-family="DejaVu Sans Mono" font-size="14.00"> &#160;&#160;&#160;&gt;&gt;&gt; factor(8)</text>
<text text-anchor="start" x="485.17" y="-573.45" font-family="DejaVu Sans Mono" font-size="14.00"> &#160;&#160;&#160;[1, 2, 4, 8]</text>
<text text-anchor="start" x="485.17" y="-540.2" font-family="DejaVu Sans Mono" font-size="14.00"> &#160;&#160;&#160;&gt;&gt;&gt; factor(10)</text>
<text text-anchor="start" x="485.17" y="-522.95" font-family="DejaVu Sans Mono" font-size="14.00"> &#160;&#160;&#160;[1, 2, 5, 10]</text>
<text text-anchor="start" x="485.17" y="-489.7" font-family="DejaVu Sans Mono" font-size="14.00"> &#160;&#160;&#160;&gt;&gt;&gt; import random</text>
<text text-anchor="start" x="485.17" y="-472.45" font-family="DejaVu Sans Mono" font-size="14.00"> &#160;&#160;&#160;&gt;&gt;&gt; for _ in range(5):</text>
<text text-anchor="start" x="485.17" y="-455.2" font-family="DejaVu Sans Mono" font-size="14.00"> &#160;&#160;&#160;... &#160;&#160;&#160;&#160;num = random.randint(0, 200)</text>
<text text-anchor="start" x="485.17" y="-437.95" font-family="DejaVu Sans Mono" font-size="14.00"> &#160;&#160;&#160;... &#160;&#160;&#160;&#160;assert factor(num) == [i for i in range(1, num // 2 + 1) if not num % i] + [num]</text>
<text text-anchor="start" x="485.17" y="-404.7" font-family="DejaVu Sans Mono" font-size="14.00"> &#160;&#160;&#160;&gt;&gt;&gt; for _ in range(2):</text>
<text text-anchor="start" x="485.17" y="-387.45" font-family="DejaVu Sans Mono" font-size="14.00"> &#160;&#160;&#160;... &#160;&#160;&#160;&#160;num = random.randint(0, 200)</text>
<text text-anchor="start" x="485.17" y="-370.2" font-family="DejaVu Sans Mono" font-size="14.00"> &#160;&#160;&#160;... &#160;&#160;&#160;&#160;factor(num) == [i for i in range(1, num // 2 + 1) if not num % i] + [num]</text>
<text text-anchor="start" x="485.17" y="-352.95" font-family="DejaVu Sans Mono" font-size="14.00"> &#160;&#160;&#160;True</text>
<text text-anchor="start" x="485.17" y="-335.7" font-family="DejaVu Sans Mono" font-size="14.00"> &#160;&#160;&#160;True</text>
<text text-anchor="start" x="485.17" y="-302.45" font-family="DejaVu Sans Mono" font-size="14.00"> &#160;&#160;&#160;&gt;&gt;&gt; print(&quot;Unlike other frameworks, doctest does stdout easily&quot;)</text>
<text text-anchor="start" x="485.17" y="-285.2" font-family="DejaVu Sans Mono" font-size="14.00"> &#160;&#160;&#160;Unlike other frameworks, doctest does stdout easily</text>
<text text-anchor="middle" x="864.67" y="-267.95" font-family="DejaVu Sans Mono" font-size="14.00"> &#160;&#160;&#160;&quot;&quot;&quot;</text>
</g>
<!-- 4 -->
<g id="node6" class="node">
<title>4</title>
<polygon fill="#98fb98" stroke="black" points="1254.47,-243 634.38,-243 474.86,-207 1094.95,-207 1254.47,-243"/>
<text text-anchor="middle" x="864.67" y="-220.32" font-family="DejaVu Sans Mono" font-size="14.00">return &#39;delete this and write your own code&#39;</text>
</g>
<!-- 3&#45;&gt;4 -->
<g id="edge4" class="edge">
<title>3&#45;&gt;4</title>
<path fill="none" stroke="black" d="M864.67,-259.75C864.67,-257.93 864.67,-256.16 864.67,-254.46"/>
<polygon fill="black" stroke="black" points="868.17,-254.47 864.67,-244.47 861.17,-254.47 868.17,-254.47"/>
</g>
<!-- input -->
<g id="node7" class="node">
<title>input</title>
<polygon fill="#afeeee" stroke="black" points="1666.55,-243 1572.88,-243 1548.78,-207 1642.45,-207 1666.55,-243"/>
<text text-anchor="middle" x="1607.67" y="-220.32" font-family="DejaVu Sans Mono" font-size="14.00">input</text>
</g>
<!-- call -->
<g id="node12" class="node">
<title>call</title>
<polygon fill="#e552ff" stroke="black" points="1634.67,-162.5 1592.67,-162.5 1592.67,-166.5 1580.67,-166.5 1580.67,-126.5 1634.67,-126.5 1634.67,-162.5"/>
<polyline fill="none" stroke="black" points="1580.67,-162.5 1592.67,-162.5"/>
<text text-anchor="middle" x="1607.67" y="-139.82" font-family="DejaVu Sans Mono" font-size="14.00">call</text>
</g>
<!-- input&#45;&gt;call -->
<!-- default -->
<g id="node8" class="node">
<title>default</title>
<polygon fill="#fffb81" stroke="black" points="1500.54,-162.5 1426.79,-162.5 1426.79,-126.5 1500.54,-126.5 1500.54,-162.5"/>
<text text-anchor="middle" x="1463.67" y="-139.82" font-family="DejaVu Sans Mono" font-size="14.00">default</text>
</g>
<!-- if -->
<g id="node9" class="node">
<title>if</title>
<polygon fill="#ff6752" stroke="black" points="1607.67,-554.88 1575.42,-536.88 1607.67,-518.88 1639.91,-536.88 1607.67,-554.88"/>
<text text-anchor="middle" x="1607.67" y="-532.2" font-family="DejaVu Sans Mono" font-size="14.00">if</text>
</g>
<!-- if&#45;&gt;input -->
<!-- for -->
<g id="node10" class="node">
<title>for</title>
<polygon fill="#ffbe52" stroke="black" points="1555.67,-536.88 1539.17,-554.88 1506.16,-554.88 1489.66,-536.88 1506.16,-518.88 1539.17,-518.88 1555.67,-536.88"/>
<text text-anchor="middle" x="1522.67" y="-532.2" font-family="DejaVu Sans Mono" font-size="14.00">for</text>
</g>
<!-- return -->
<g id="node13" class="node">
<title>return</title>
<polygon fill="#98fb98" stroke="black" points="1531.03,-243 1423.87,-243 1396.3,-207 1503.46,-207 1531.03,-243"/>
<text text-anchor="middle" x="1463.67" y="-220.32" font-family="DejaVu Sans Mono" font-size="14.00">return</text>
</g>
<!-- for&#45;&gt;return -->
<!-- while -->
<g id="node11" class="node">
<title>while</title>
<polygon fill="#ffbe52" stroke="black" points="1472.04,-536.88 1448.85,-554.88 1402.48,-554.88 1379.29,-536.88 1402.48,-518.88 1448.85,-518.88 1472.04,-536.88"/>
<text text-anchor="middle" x="1425.67" y="-532.2" font-family="DejaVu Sans Mono" font-size="14.00">while</text>
</g>
<!-- return&#45;&gt;default -->
<!-- try -->
<g id="node14" class="node">
<title>try</title>
<polygon fill="orange" stroke="black" points="1320.67,-554.88 1280.24,-536.88 1320.67,-518.88 1361.09,-536.88 1320.67,-554.88"/>
<polyline fill="none" stroke="black" points="1291.2,-541.76 1291.2,-531.99"/>
<polyline fill="none" stroke="black" points="1309.7,-523.76 1331.63,-523.76"/>
<polyline fill="none" stroke="black" points="1350.13,-531.99 1350.13,-541.76"/>
<polyline fill="none" stroke="black" points="1331.63,-549.99 1309.7,-549.99"/>
<text text-anchor="middle" x="1320.67" y="-532.2" font-family="DejaVu Sans Mono" font-size="14.00">try</text>
</g>
<!-- raise -->
<g id="node15" class="node">
<title>raise</title>
<polygon fill="#98fb98" stroke="black" points="1378.31,-230.56 1328.67,-243 1279.03,-230.56 1279.07,-210.44 1378.26,-210.44 1378.31,-230.56"/>
<text text-anchor="middle" x="1328.67" y="-220.32" font-family="DejaVu Sans Mono" font-size="14.00">raise</text>
</g>
<!-- try&#45;&gt;raise -->
</g>
</svg>
